<svg width="current" height="current" viewBox="0 0 18 19" fill="none" xmlns="http://www.w3.org/2000/svg">
<path d="M2.33301 9.66691C2.33301 6.52441 2.33301 4.95274 3.30968 3.97691C4.28635 3.00108 5.85719 3.00024 8.9997 3.00024C12.1422 3.00024 13.7139 3.00024 14.6897 3.97691C15.6656 4.95358 15.6664 6.52441 15.6664 9.66691C15.6664 12.8094 15.6664 14.3811 14.6897 15.3569C13.713 16.3327 12.1422 16.3336 8.9997 16.3336C5.85719 16.3336 4.28551 16.3336 3.30968 15.3569C2.33384 14.3802 2.33301 12.8094 2.33301 9.66691Z" stroke="current" stroke-width="1.25" stroke-linecap="round" stroke-linejoin="round"/>
<path d="M5.24985 12.1668L6.78486 7.56183C6.82339 7.44691 6.89706 7.347 6.99545 7.27621C7.09384 7.20543 7.21198 7.16734 7.33319 7.16734C7.4544 7.16734 7.57255 7.20543 7.67094 7.27621C7.76933 7.347 7.843 7.44691 7.88153 7.56183L9.41653 12.1668M6.08319 10.5002H8.5832M11.9165 7.16683V12.1668M5.66652 1.3335V3.00016M12.3332 1.3335V3.00016M8.99987 1.3335V3.00016M5.66652 16.3335V18.0002M8.99987 16.3335V18.0002M12.3332 16.3335V18.0002M17.3332 13.0002H15.6666M2.33318 6.3335H0.666504M2.33318 13.0002H0.666504M2.33318 9.66683H0.666504M17.3332 6.3335H15.6666M17.3332 9.66683H15.6666" stroke="current" stroke-width="1.25" stroke-linecap="round" stroke-linejoin="round"/>
</svg>
