<svg width="32" height="33" viewBox="0 0 32 33" fill="none" xmlns="http://www.w3.org/2000/svg">
<path fill-rule="evenodd" clip-rule="evenodd" d="M5.73304 4.8667C4.8862 4.8667 4.19971 5.5532 4.19971 6.40003V13.6C4.19971 14.4469 4.8862 15.1334 5.73304 15.1334H12.933C13.7799 15.1334 14.4664 14.4469 14.4664 13.6V6.40003C14.4664 5.5532 13.7799 4.8667 12.933 4.8667H5.73304ZM6.46637 12.8667V7.13337H12.1997V12.8667H6.46637Z" fill="#247BFF"/>
<path fill-rule="evenodd" clip-rule="evenodd" d="M19.0663 4.8667C18.2195 4.8667 17.533 5.5532 17.533 6.40003V13.6C17.533 14.4469 18.2195 15.1334 19.0663 15.1334H26.2663C27.1132 15.1334 27.7997 14.4469 27.7997 13.6V6.40003C27.7997 5.5532 27.1132 4.8667 26.2663 4.8667H19.0663ZM19.7997 12.8667V7.13337H25.533V12.8667H19.7997Z" fill="#247BFF"/>
<path fill-rule="evenodd" clip-rule="evenodd" d="M4.19971 19.7334C4.19971 18.8865 4.8862 18.2 5.73304 18.2H12.933C13.7799 18.2 14.4664 18.8865 14.4664 19.7334V26.9334C14.4664 27.7802 13.7799 28.4667 12.933 28.4667H5.73304C4.8862 28.4667 4.19971 27.7802 4.19971 26.9334V19.7334ZM6.46637 20.4667V26.2H12.1997V20.4667H6.46637Z" fill="#247BFF"/>
<path fill-rule="evenodd" clip-rule="evenodd" d="M19.0663 18.2C18.2195 18.2 17.533 18.8865 17.533 19.7334V26.9334C17.533 27.7802 18.2195 28.4667 19.0663 28.4667H26.2663C27.1132 28.4667 27.7997 27.7802 27.7997 26.9334V19.7334C27.7997 18.8865 27.1132 18.2 26.2663 18.2H19.0663ZM19.7997 26.2V20.4667H25.533V26.2H19.7997Z" fill="#247BFF"/>
</svg>
