<svg width="16" height="16" viewBox="0 0 24 24" fill="none" xmlns="http://www.w3.org/2000/svg">
<path fill-rule="evenodd" clip-rule="evenodd" d="M5.50582 4.08008H18.4946C20.3756 4.08008 21.9002 5.60468 21.9002 7.48568V15.5443C21.9002 17.4253 20.3756 18.9499 18.4946 18.9499H13.8713L12.3071 21.6526C12.1685 21.9001 11.8022 21.9001 11.6636 21.6526L10.0994 18.9499H5.50582C3.62482 18.9499 2.10022 17.4253 2.10022 15.5443V7.48568C2.10022 5.60468 3.62482 4.08008 5.50582 4.08008ZM6.70368 13.7623C6.32748 13.7623 5.98098 13.6039 5.70378 13.3366V13.6633H4.58508V8.73306H5.70378V10.2973C5.98098 10.03 6.31758 9.87156 6.70368 9.87156C7.73328 9.87156 8.57478 10.7428 8.57478 11.8219C8.57478 12.901 7.73328 13.7623 6.70368 13.7623ZM10.3865 13.6633H9.25788V10.426C9.25788 9.88146 8.96088 9.62406 8.65398 9.61416V8.61426C9.40638 8.66376 10.3865 9.15876 10.3865 10.4161V13.6633ZM12.9704 13.7623C11.8913 13.7623 11.0201 12.8911 11.0201 11.812C11.0201 10.7329 11.8913 9.86166 12.9704 9.86166C14.0495 9.86166 14.9207 10.7329 14.9207 11.812C14.9207 12.8911 14.0495 13.7623 12.9704 13.7623ZM19.4054 13.3861C19.4054 14.8909 18.257 15.2176 17.465 15.2473V14.2573C18.1778 14.2177 18.3362 13.8712 18.3263 13.2475V13.1782C18.0491 13.4554 17.6927 13.6237 17.2967 13.6237C16.2671 13.6237 15.4256 12.7822 15.4256 11.7526C15.4256 10.723 16.2671 9.88146 17.2967 9.88146C17.6927 9.88146 18.0491 10.0498 18.3263 10.327V9.99036H19.4054V13.3861ZM18.3857 11.7426C18.3857 12.2475 17.96 12.6633 17.4353 12.6633C16.9106 12.6633 16.4849 12.2475 16.4849 11.7426C16.4849 11.2377 16.9106 10.8219 17.4353 10.8219C17.96 10.8219 18.3857 11.2377 18.3857 11.7426ZM7.53532 11.8218C7.53532 12.3465 7.10962 12.7821 6.57502 12.7821C6.04042 12.7821 5.61472 12.3564 5.61472 11.8218C5.61472 11.2872 6.04042 10.8615 6.57502 10.8615C7.10962 10.8615 7.53532 11.2872 7.53532 11.8218ZM13.8911 11.8218C13.8911 12.3267 13.4753 12.7425 12.9704 12.7425C12.4655 12.7425 12.0497 12.3267 12.0497 11.8218C12.0497 11.3169 12.4655 10.9011 12.9704 10.9011C13.4753 10.9011 13.8911 11.3169 13.8911 11.8218Z" fill="current"/>
</svg>
