<svg width="24" height="24" viewBox="0 0 24 24" fill="none" xmlns="http://www.w3.org/2000/svg">
<path d="M18.4945 4.08008H5.5057C3.6247 4.08008 2.1001 5.60468 2.1001 7.48568V15.5443C2.1001 17.4253 3.6247 18.9499 5.5057 18.9499H10.0993L11.6635 21.6526C11.8021 21.9001 12.1684 21.9001 12.307 21.6526L13.8712 18.9499H18.4945C20.3755 18.9499 21.9001 17.4253 21.9001 15.5443V7.48568C21.9001 5.60468 20.3755 4.08008 18.4945 4.08008Z" fill="#00C73C"/>
<path fill-rule="evenodd" clip-rule="evenodd" d="M5.70366 13.3366C5.98086 13.6039 6.32736 13.7623 6.70356 13.7623C7.73316 13.7623 8.57466 12.901 8.57466 11.8219C8.57466 10.7428 7.73316 9.87156 6.70356 9.87156C6.31746 9.87156 5.98086 10.03 5.70366 10.2973V8.73306H4.58496V13.6633H5.70366V13.3366ZM9.25776 13.6633H10.3864V10.4161C10.3864 9.15876 9.40626 8.66376 8.65386 8.61426V9.61416C8.96076 9.62406 9.25776 9.88146 9.25776 10.426V13.6633ZM11.02 11.812C11.02 12.8911 11.8912 13.7623 12.9703 13.7623C14.0494 13.7623 14.9206 12.8911 14.9206 11.812C14.9206 10.7329 14.0494 9.86166 12.9703 9.86166C11.8912 9.86166 11.02 10.7329 11.02 11.812ZM17.4649 15.2473C18.2569 15.2176 19.4053 14.8909 19.4053 13.3861V9.99036H18.3262V10.327C18.049 10.0498 17.6926 9.88146 17.2966 9.88146C16.267 9.88146 15.4255 10.723 15.4255 11.7526C15.4255 12.7822 16.267 13.6237 17.2966 13.6237C17.6926 13.6237 18.049 13.4554 18.3262 13.1782V13.2475C18.3361 13.8712 18.1777 14.2177 17.4649 14.2573V15.2473ZM17.4352 12.6633C17.9599 12.6633 18.3856 12.2475 18.3856 11.7426C18.3856 11.2377 17.9599 10.8219 17.4352 10.8219C16.9105 10.8219 16.4848 11.2377 16.4848 11.7426C16.4848 12.2475 16.9105 12.6633 17.4352 12.6633ZM6.5749 12.7821C7.1095 12.7821 7.5352 12.3465 7.5352 11.8218C7.5352 11.2872 7.1095 10.8615 6.5749 10.8615C6.0403 10.8615 5.6146 11.2872 5.6146 11.8218C5.6146 12.3564 6.0403 12.7821 6.5749 12.7821ZM12.9703 12.7425C13.4752 12.7425 13.891 12.3267 13.891 11.8218C13.891 11.3169 13.4752 10.9011 12.9703 10.9011C12.4654 10.9011 12.0496 11.3169 12.0496 11.8218C12.0496 12.3267 12.4654 12.7425 12.9703 12.7425Z" fill="white"/>
</svg>
