<svg width="16" height="16" viewBox="0 0 16 16" fill="none" xmlns="http://www.w3.org/2000/svg">
<path d="M11.1428 5.99998H11.7143C12.3205 5.99998 12.9018 6.2408 13.3305 6.66945C13.7592 7.09811 14 7.67949 14 8.2857C14 8.89191 13.7592 9.47329 13.3305 9.90194C12.9018 10.3306 12.3205 10.5714 11.7143 10.5714H11.1428" stroke="white" stroke-width="1.71429" stroke-linecap="round" stroke-linejoin="round"/>
<path d="M2 5.99998H11.1429V11.1428C11.1429 11.7491 10.9021 12.3304 10.4734 12.7591C10.0447 13.1877 9.46336 13.4286 8.85715 13.4286H4.28572C3.67951 13.4286 3.09813 13.1877 2.66947 12.7591C2.24082 12.3304 2 11.7491 2 11.1428V5.99998Z" fill="white" stroke="white" stroke-width="1.71429" stroke-linecap="round" stroke-linejoin="round"/>
<path d="M4.28564 1.99998V3.71427" stroke="white" stroke-width="1.71429" stroke-linecap="round" stroke-linejoin="round"/>
<path d="M6.57153 1.99998V3.71427" stroke="white" stroke-width="1.71429" stroke-linecap="round" stroke-linejoin="round"/>
<path d="M8.85718 1.99998V3.71427" stroke="white" stroke-width="1.71429" stroke-linecap="round" stroke-linejoin="round"/>
</svg>
