<svg width="current" height="current" viewBox="0 0 18 18" fill="none" xmlns="http://www.w3.org/2000/svg">
<path fill-rule="evenodd" clip-rule="evenodd" d="M7.00632 0.38836C7.64746 0.243272 8.31492 0.166748 8.99975 0.166748C9.68463 0.166748 10.3521 0.243283 10.9933 0.388392C11.7404 0.557476 12.1041 1.20134 12.2464 1.65529C12.3567 2.00723 12.6011 2.32634 12.9683 2.53166C13.3124 2.72401 13.7001 2.78027 14.0661 2.71555C14.5372 2.63225 15.2504 2.67212 15.7329 3.23582C16.3463 3.95241 16.8417 4.76976 17.1884 5.65976C17.5085 6.48172 17.0351 7.2123 16.6414 7.57845C16.3401 7.85869 16.1599 8.24439 16.1599 8.66673C16.1599 9.08907 16.3401 9.47477 16.6414 9.75501C17.0351 10.1212 17.5085 10.8517 17.1884 11.6737C16.8418 12.5634 16.3467 13.3806 15.7335 14.097C15.2509 14.6609 14.5375 14.7007 14.0663 14.6173C13.7002 14.5526 13.3124 14.6088 12.9683 14.8012C12.6009 15.0066 12.3566 15.3258 12.2463 15.6779C12.1041 16.1319 11.7404 16.7761 10.993 16.9452C10.3519 17.0902 9.68453 17.1667 8.99975 17.1667C8.31493 17.1667 7.64748 17.0902 7.00634 16.9451C6.25918 16.7761 5.89547 16.1322 5.75318 15.6782C5.64287 15.3263 5.39855 15.0071 5.03128 14.8018C4.68721 14.6095 4.29949 14.5532 3.93346 14.6179C3.46232 14.7013 2.74916 14.6614 2.2666 14.0977C1.65318 13.3811 1.1578 12.5638 0.81116 11.6738C0.490995 10.8518 0.964462 10.1212 1.35816 9.75505C1.6595 9.4748 1.83973 9.08909 1.83973 8.66673C1.83973 8.24436 1.6595 7.85865 1.35817 7.5784C0.964471 7.21226 0.491006 6.48164 0.811176 5.65964C1.15781 4.76971 1.65316 3.95243 2.26653 3.23588C2.7491 2.67215 3.46227 2.6323 3.93341 2.71563C4.29945 2.78036 4.68718 2.7241 5.03125 2.53175C5.39853 2.32642 5.64285 2.00728 5.75316 1.65533C5.89544 1.20135 6.25915 0.557442 7.00632 0.38836ZM7.36979 1.92949C7.36684 1.93226 7.36265 1.93655 7.35723 1.94289C7.32957 1.9753 7.29268 2.03743 7.26402 2.12885C7.0346 2.86088 6.52966 3.50801 5.80388 3.91377C5.12714 4.2921 4.36694 4.40019 3.65769 4.27477C3.57319 4.25982 3.50913 4.26425 3.47331 4.27283C3.46738 4.27425 3.46299 4.27556 3.45989 4.27661C2.96787 4.85381 2.57178 5.50803 2.2935 6.21651C2.29456 6.22022 2.29615 6.22514 2.29852 6.23142C2.31559 6.27672 2.35948 6.3474 2.43645 6.41899C3.04006 6.98036 3.42307 7.77817 3.42307 8.66673C3.42307 9.55529 3.04005 10.3531 2.43644 10.9145C2.35947 10.9861 2.31558 11.0567 2.2985 11.102C2.29613 11.1083 2.29455 11.1132 2.29349 11.1169C2.57178 11.8255 2.96789 12.4797 3.45994 13.0569C3.46304 13.058 3.46743 13.0593 3.47336 13.0607C3.50918 13.0693 3.57324 13.0737 3.65773 13.0588C4.36699 12.9334 5.12718 13.0415 5.80391 13.4198C6.52968 13.8255 7.03461 14.4727 7.26404 15.2047C7.29269 15.2961 7.32959 15.3582 7.35725 15.3906C7.36266 15.397 7.36686 15.4012 7.36981 15.404C7.89264 15.5212 8.43816 15.5834 8.99975 15.5834C9.5613 15.5834 10.1068 15.5213 10.6296 15.404C10.6325 15.4013 10.6367 15.397 10.6421 15.3906C10.6698 15.3582 10.7067 15.296 10.7354 15.2046C10.9647 14.4724 11.4697 13.825 12.1957 13.4192C12.8725 13.0408 13.6328 12.9327 14.3422 13.0582C14.4267 13.0732 14.4908 13.0688 14.5266 13.0602C14.5325 13.0587 14.5369 13.0574 14.54 13.0564C15.0319 12.4793 15.4278 11.8252 15.706 11.1169C15.705 11.1131 15.7034 11.1082 15.701 11.1019C15.684 11.0567 15.6401 10.986 15.5631 10.9144C14.9596 10.353 14.5766 9.55524 14.5766 8.66673C14.5766 7.77822 14.9595 6.98044 15.5631 6.41908C15.6401 6.34749 15.6839 6.27681 15.701 6.23152C15.7034 6.22524 15.705 6.22032 15.706 6.21661C15.4277 5.50807 15.0316 4.8538 14.5396 4.27656C14.5365 4.27551 14.5321 4.2742 14.5261 4.27278C14.4903 4.26419 14.4263 4.25977 14.3418 4.2747C13.6325 4.4001 12.8724 4.292 12.1957 3.91369C11.4699 3.50795 10.965 2.86085 10.7356 2.12886C10.7069 2.03745 10.67 1.97532 10.6424 1.94291C10.637 1.93657 10.6328 1.93229 10.6298 1.92952C10.1069 1.81226 9.56138 1.75008 8.99975 1.75008C8.43816 1.75008 7.89263 1.81225 7.36979 1.92949ZM15.708 6.20757C15.7081 6.20757 15.708 6.20789 15.7079 6.20855L15.708 6.20757ZM2.29147 11.126C2.29146 11.126 2.29148 11.1257 2.29158 11.125L2.29147 11.126ZM5.7082 8.66675C5.7082 6.84881 7.18193 5.37508 8.99986 5.37508C10.8178 5.37508 12.2915 6.84881 12.2915 8.66675C12.2915 10.4847 10.8178 11.9584 8.99986 11.9584C7.18193 11.9584 5.7082 10.4847 5.7082 8.66675ZM8.99986 6.95841C8.05638 6.95841 7.29153 7.72326 7.29153 8.66675C7.29153 9.61024 8.05638 10.3751 8.99986 10.3751C9.94335 10.3751 10.7082 9.61024 10.7082 8.66675C10.7082 7.72326 9.94335 6.95841 8.99986 6.95841Z" fill="current"/>
</svg>
