<svg width="24" height="24" viewBox="0 0 24 24" fill="none" xmlns="http://www.w3.org/2000/svg">
<g id="Shape">
<g id="Vector">
<path fill-rule="evenodd" clip-rule="evenodd" d="M20.9001 15L20.9001 18.4304C20.9001 18.6847 20.9001 18.9267 20.8835 19.1307C20.8653 19.3531 20.8229 19.6082 20.693 19.8632C20.5108 20.2207 20.2202 20.5113 19.8627 20.6935C19.6077 20.8234 19.3526 20.8658 19.1302 20.884C18.9262 20.9006 18.6842 20.9006 18.4299 20.9006H5.57034C5.31604 20.9006 5.07396 20.9006 4.87001 20.884C4.6476 20.8658 4.3925 20.8234 4.13752 20.6935C3.78001 20.5113 3.48935 20.2207 3.30719 19.8632C3.17727 19.6082 3.13488 19.3531 3.11671 19.1307C3.10005 18.9267 3.10007 18.6847 3.1001 18.4303V15H4.9001V19.0003C4.9001 19.0555 4.94487 19.1003 5.0001 19.1003H19.0001C19.0553 19.1003 19.1001 19.0555 19.1001 19.0003V15H20.9001Z" fill="#47484C"/>
<path d="M11.1 4.00059V13.4186L8.36681 10.8462C8.00485 10.5055 7.43526 10.5228 7.0946 10.8847C6.75393 11.2467 6.77119 11.8163 7.13315 12.1569L11.3831 16.1569C11.7297 16.4831 12.2703 16.4831 12.6168 16.1569L16.8668 12.1569C17.2288 11.8163 17.246 11.2467 16.9054 10.8847C16.5647 10.5228 15.9951 10.5055 15.6332 10.8462L12.9 13.4186V4.00059C12.9 3.50353 12.497 3.10059 12 3.10059C11.5029 3.10059 11.1 3.50353 11.1 4.00059Z" fill="#47484C"/>
</g>
</g>
</svg>
