<svg width="17" height="16" viewBox="0 0 17 16" fill="none" xmlns="http://www.w3.org/2000/svg">
<path fill-rule="evenodd" clip-rule="evenodd" d="M8.49982 1.40009C7.01633 1.40009 5.79673 1.92528 4.9584 2.9163C4.13165 3.89365 3.73315 5.25549 3.73315 6.83342L3.73315 7.33342C3.73315 8.97684 3.27766 9.94996 2.62892 10.5788C2.37455 10.8254 2.34815 11.1666 2.43908 11.4176C2.53154 11.6729 2.78495 11.9334 3.16619 11.9334H13.8335C14.2147 11.9334 14.4681 11.6729 14.5606 11.4176C14.6515 11.1666 14.6251 10.8254 14.3707 10.5788C13.722 9.94996 13.2665 8.97684 13.2665 7.33342L13.2665 6.83342C13.2665 5.25549 12.868 3.89365 12.0412 2.9163C11.2029 1.92528 9.98332 1.40009 8.49982 1.40009ZM4.93315 6.83342C4.93315 5.4435 5.28466 4.38867 5.87457 3.69131C6.45291 3.00763 7.31665 2.60009 8.49982 2.60009C9.683 2.60009 10.5467 3.00763 11.1251 3.69131C11.715 4.38867 12.0665 5.4435 12.0665 6.83342V7.33342C12.0665 8.77523 12.3786 9.88486 12.9456 10.7334H4.05401C4.62106 9.88486 4.93315 8.77523 4.93315 7.33342L4.93315 6.83342Z" fill="#69ACFF"/>
<path d="M6.56657 13.4001V14.6001H10.4332V13.4001H6.56657Z" fill="#69ACFF"/>
</svg>
