<svg width="16" height="16" viewBox="0 0 16 16" fill="none" xmlns="http://www.w3.org/2000/svg">
<path fill-rule="evenodd" clip-rule="evenodd" d="M7.99985 2.65889C7.98182 2.68969 7.9627 2.72251 7.94224 2.75763L6.40321 5.4C6.3989 5.40739 6.39412 5.41581 6.38883 5.42511C6.33706 5.5162 6.23728 5.69173 6.07138 5.81227C5.90548 5.9328 5.7077 5.97345 5.60507 5.99455C5.59459 5.9967 5.58511 5.99865 5.57675 6.00046L2.58813 6.64764C2.54841 6.65624 2.51128 6.66429 2.47642 6.67191C2.50014 6.69858 2.52544 6.72691 2.55252 6.75722L4.58997 9.03747C4.59567 9.04384 4.60219 9.051 4.6094 9.05889C4.68003 9.13628 4.81614 9.28543 4.87951 9.48046C4.94288 9.67549 4.92043 9.87615 4.90878 9.98028C4.90759 9.9909 4.90651 10.0005 4.90565 10.009L4.59762 13.0514C4.59352 13.0918 4.5897 13.1296 4.58618 13.1651C4.61887 13.1508 4.65363 13.1355 4.69083 13.1191L7.48907 11.886C7.4969 11.8826 7.50571 11.8786 7.51545 11.8741C7.61088 11.8309 7.79479 11.7475 7.99985 11.7475C8.20491 11.7475 8.38882 11.8309 8.48425 11.8741C8.49399 11.8786 8.50281 11.8826 8.51063 11.886L11.3089 13.1191C11.3461 13.1355 11.3808 13.1508 11.4135 13.1651C11.41 13.1296 11.4062 13.0918 11.4021 13.0514L11.0941 10.009C11.0932 10.0005 11.0921 9.9909 11.0909 9.98028C11.0793 9.87615 11.0568 9.67548 11.1202 9.48046C11.1836 9.28543 11.3197 9.13629 11.3903 9.05889C11.3975 9.051 11.404 9.04384 11.4097 9.03747L13.4472 6.75722C13.4743 6.72691 13.4996 6.69858 13.5233 6.67191C13.4884 6.66429 13.4513 6.65624 13.4116 6.64764L10.423 6.00046C10.4146 5.99865 10.4051 5.9967 10.3946 5.99455C10.292 5.97345 10.0942 5.9328 9.92833 5.81227C9.76243 5.69173 9.66264 5.5162 9.61087 5.42511C9.60558 5.41581 9.6008 5.40739 9.59649 5.4L8.05746 2.75763C8.037 2.72251 8.01788 2.68969 7.99985 2.65889ZM7.2676 1.58572C7.39381 1.42798 7.62787 1.19556 7.99985 1.19556C8.37183 1.19556 8.60589 1.42799 8.73211 1.58572C8.84851 1.73119 8.96426 1.93008 9.07669 2.12327C9.0826 2.13342 9.0885 2.14356 9.09439 2.15367L10.6334 4.79604C10.6388 4.80522 10.6437 4.81363 10.6482 4.82142C10.657 4.82333 10.6665 4.8254 10.6769 4.82765L13.6655 5.47482C13.677 5.4773 13.6884 5.47978 13.6999 5.48226C13.9184 5.52949 14.1433 5.57812 14.3176 5.64387C14.5067 5.71516 14.8 5.86595 14.915 6.21972C15.0299 6.57349 14.8812 6.86793 14.7702 7.03671C14.6678 7.19237 14.5144 7.36391 14.3654 7.53054C14.3576 7.5393 14.3498 7.54804 14.342 7.55677L12.3046 9.83702C12.2975 9.84493 12.291 9.8522 12.285 9.85893C12.2859 9.8679 12.2869 9.87759 12.2879 9.88815L12.596 12.9305C12.5972 12.9421 12.5983 12.9538 12.5995 12.9655C12.6221 13.1879 12.6454 13.4168 12.6367 13.6029C12.6273 13.8047 12.5746 14.1303 12.2736 14.349C11.9727 14.5676 11.6467 14.5172 11.4519 14.4637C11.2722 14.4145 11.0617 14.3216 10.8572 14.2314C10.8464 14.2267 10.8357 14.2219 10.825 14.2172L8.02673 12.9841C8.01702 12.9798 8.0081 12.9759 7.99985 12.9723C7.9916 12.9759 7.98268 12.9798 7.97297 12.9841L5.17472 14.2172C5.16401 14.2219 5.15327 14.2267 5.14252 14.2314C4.93801 14.3216 4.72747 14.4145 4.5478 14.4637C4.35298 14.5172 4.027 14.5676 3.72606 14.349C3.42512 14.1303 3.37238 13.8047 3.36298 13.6029C3.35432 13.4168 3.37758 13.1879 3.40017 12.9655C3.40136 12.9538 3.40254 12.9421 3.40372 12.9305L3.71176 9.88815C3.71283 9.87759 3.71381 9.8679 3.71471 9.85893C3.70871 9.8522 3.70222 9.84493 3.69514 9.83702L1.6577 7.55676C1.6499 7.54804 1.64209 7.5393 1.63426 7.53054C1.48527 7.36391 1.33188 7.19236 1.2295 7.03671C1.11848 6.86793 0.969762 6.57349 1.08471 6.21972C1.19966 5.86595 1.49304 5.71516 1.68206 5.64387C1.85638 5.57812 2.0813 5.52949 2.29977 5.48226C2.31126 5.47978 2.32272 5.4773 2.33416 5.47482L5.32278 4.82765C5.33316 4.8254 5.34268 4.82334 5.35149 4.82142C5.35603 4.81363 5.36093 4.80522 5.36628 4.79604L6.90531 2.15367C6.9112 2.14356 6.9171 2.13343 6.92301 2.12327C7.03544 1.93008 7.1512 1.7312 7.2676 1.58572Z" fill="white"/>
</svg>
