<svg width="current" height="current" viewBox="0 0 20 19" fill="none" xmlns="http://www.w3.org/2000/svg">
<path d="M11.1909 4.90529V2.61555C11.1909 2.27553 11.0558 1.94943 10.8154 1.709C10.575 1.46857 10.2489 1.3335 9.90884 1.3335H2.94856C2.60854 1.3335 2.28244 1.46857 2.04201 1.709C1.80158 1.94943 1.6665 2.27553 1.6665 2.61555V9.5758C1.6665 9.91583 1.80158 10.2419 2.04201 10.4824C2.28244 10.7228 2.60854 10.8579 2.94856 10.8579H5.23831M10.0909 8.4758H17.0512C17.0512 8.4758 18.3332 8.4758 18.3332 9.75786V16.7181C18.3332 16.7181 18.3332 18.0002 17.0512 18.0002H10.0909C10.0909 18.0002 8.80884 18.0002 8.80884 16.7181V9.75786C8.80884 9.75786 8.80884 8.4758 10.0909 8.4758Z" stroke="current" stroke-width="1.53846" stroke-linecap="round" stroke-linejoin="round"/>
<path d="M5.15499 5.18595C5.06998 5.18595 4.98846 5.15218 4.92835 5.09207C4.86824 5.03196 4.83447 4.95044 4.83447 4.86543C4.83447 4.78043 4.86824 4.69891 4.92835 4.6388C4.98846 4.57869 5.06998 4.54492 5.15499 4.54492M12.1204 15.0077C12.0354 15.0077 11.9539 14.974 11.8938 14.9139C11.8336 14.8538 11.7999 14.7722 11.7999 14.6872C11.7999 14.6022 11.8336 14.5207 11.8938 14.4606C11.9539 14.4005 12.0354 14.3667 12.1204 14.3667C12.2054 14.3667 12.2869 14.4005 12.347 14.4606C12.4071 14.5207 12.4409 14.6022 12.4409 14.6872C12.4409 14.7722 12.4071 14.8538 12.347 14.9139C12.2869 14.974 12.2054 15.0077 12.1204 15.0077Z" stroke="current" stroke-width="1.53846" stroke-linecap="round" stroke-linejoin="round"/>
<path d="M5.15381 5.18595C5.23881 5.18595 5.32034 5.15218 5.38045 5.09207C5.44055 5.03196 5.47432 4.95044 5.47432 4.86543C5.47432 4.78043 5.44055 4.69891 5.38045 4.6388C5.32034 4.57869 5.23881 4.54492 5.15381 4.54492M15.0244 12.3654C14.9393 12.3654 14.8578 12.3317 14.7977 12.2716C14.7376 12.2114 14.7038 12.1299 14.7038 12.0449C14.7038 11.9599 14.7376 11.8784 14.7977 11.8183C14.8578 11.7582 14.9393 11.7244 15.0244 11.7244" stroke="current" stroke-width="1.53846" stroke-linecap="round" stroke-linejoin="round"/>
<path d="M15.0229 12.3656C15.108 12.3656 15.1895 12.3319 15.2496 12.2718C15.3097 12.2117 15.3435 12.1301 15.3435 12.0451C15.3435 11.9601 15.3097 11.8786 15.2496 11.8185C15.1895 11.7584 15.108 11.7246 15.0229 11.7246" stroke="#47484C" stroke-width="1.53846" stroke-linecap="round" stroke-linejoin="round"/>
</svg>
