<svg width="16" height="16" viewBox="0 0 24 24" fill="none" xmlns="http://www.w3.org/2000/svg">
<path d="M12.0001 2.09998C6.5353 2.09998 2.1001 6.53518 2.1001 12C2.1001 16.9401 5.7235 21.0387 10.4557 21.7812V14.8611H7.9411V12H10.4557V9.82198C10.4557 7.33708 11.9308 5.97088 14.1979 5.97088C15.277 5.97088 16.4155 6.16888 16.4155 6.16888V8.60428H15.1681C13.9405 8.60428 13.5544 9.36658 13.5544 10.1487V12.0099H16.2967L15.8611 14.871H13.5544V21.7911C18.2866 21.0486 21.9001 16.9401 21.9001 12C21.9001 6.53518 17.4748 2.10988 12.01 2.10988L12.0001 2.09998Z" fill="current"/>
</svg>
