<svg width="16" height="16" viewBox="0 0 16 16" fill="none" xmlns="http://www.w3.org/2000/svg">
<path fill-rule="evenodd" clip-rule="evenodd" d="M7.99982 1.3999C6.51633 1.3999 5.29673 1.9251 4.4584 2.91612C3.63165 3.89346 3.23315 5.2553 3.23315 6.83324L3.23315 7.33324C3.23315 8.97666 2.77766 9.94977 2.12892 10.5786C1.87455 10.8252 1.84815 11.1664 1.93908 11.4175C2.03154 11.6728 2.28495 11.9332 2.66619 11.9332H13.3335C13.7147 11.9332 13.9681 11.6728 14.0606 11.4175C14.1515 11.1664 14.1251 10.8252 13.8707 10.5786C13.222 9.94977 12.7665 8.97666 12.7665 7.33324L12.7665 6.83324C12.7665 5.2553 12.368 3.89346 11.5412 2.91612C10.7029 1.9251 9.48332 1.3999 7.99982 1.3999Z" fill="#69ACFF"/>
<path d="M6.06657 13.3999V14.5999H9.93324V13.3999H6.06657Z" fill="#69ACFF"/>
</svg>
