<svg width="17" height="16" viewBox="0 0 17 16" fill="none" xmlns="http://www.w3.org/2000/svg">
<mask id="mask0_711_8056" style="mask-type:alpha" maskUnits="userSpaceOnUse" x="0" y="0" width="17" height="16">
<path fill-rule="evenodd" clip-rule="evenodd" d="M7.76762 1.58572C7.89383 1.42798 8.1279 1.19556 8.49988 1.19556C8.87186 1.19556 9.10593 1.42799 9.23214 1.58572C9.34854 1.73119 9.46429 1.93008 9.57672 2.12327C9.58263 2.13342 9.58853 2.14356 9.59442 2.15367L11.1335 4.79604C11.1388 4.80522 11.1437 4.81363 11.1483 4.82142C11.1571 4.82333 11.1666 4.8254 11.177 4.82765L14.1656 5.47482C14.177 5.4773 14.1885 5.47978 14.2 5.48226C14.4185 5.52949 14.6434 5.57812 14.8177 5.64387C15.0067 5.71516 15.3001 5.86595 15.4151 6.21972C15.53 6.57349 15.3813 6.86793 15.2703 7.03671C15.1679 7.19237 15.0145 7.36391 14.8655 7.53054C14.8577 7.5393 14.8499 7.54804 14.8421 7.55677L12.8046 9.83702C12.7975 9.84493 12.791 9.8522 12.785 9.85893C12.7859 9.8679 12.7869 9.87759 12.788 9.88815L13.096 12.9305C13.0972 12.9421 13.0984 12.9538 13.0996 12.9655C13.1222 13.1879 13.1454 13.4168 13.1368 13.6029C13.1274 13.8047 13.0746 14.1303 12.7737 14.349C12.4728 14.5676 12.1468 14.5172 11.9519 14.4637C11.7723 14.4145 11.5617 14.3216 11.3572 14.2314C11.3465 14.2267 11.3357 14.2219 11.325 14.2172L8.52676 12.9841C8.51705 12.9798 8.50813 12.9759 8.49988 12.9723C8.49162 12.9759 8.48271 12.9798 8.473 12.9841L5.67474 14.2172C5.66402 14.2219 5.65329 14.2267 5.64253 14.2314C5.43803 14.3216 5.22748 14.4145 5.04781 14.4637C4.85299 14.5172 4.52701 14.5676 4.22607 14.349C3.92513 14.1303 3.87239 13.8047 3.86299 13.6029C3.85433 13.4168 3.87759 13.1879 3.90018 12.9655C3.90137 12.9538 3.90255 12.9421 3.90373 12.9305L4.21177 9.88815C4.21284 9.87759 4.21382 9.8679 4.21472 9.85893C4.20872 9.8522 4.20223 9.84493 4.19515 9.83702L2.1577 7.55676C2.1499 7.54804 2.14209 7.5393 2.13426 7.53054C1.98527 7.36391 1.83188 7.19236 1.7295 7.03671C1.61848 6.86793 1.46976 6.57349 1.58471 6.21972C1.69966 5.86595 1.99304 5.71516 2.18206 5.64387C2.35638 5.57812 2.5813 5.52949 2.79978 5.48226C2.81126 5.47978 2.82273 5.4773 2.83417 5.47482L5.8228 4.82765C5.83318 4.8254 5.84269 4.82334 5.8515 4.82142C5.85605 4.81363 5.86095 4.80522 5.8663 4.79604L7.40534 2.15367C7.41123 2.14356 7.41713 2.13342 7.42304 2.12327C7.53547 1.93008 7.65122 1.7312 7.76762 1.58572Z" fill="black"/> 
</mask>
<g mask="url(#mask0_711_8056)">
<rect x="0.499939" width="16" height="16" fill="white"/>
</g>
</svg>
