<svg width="current" height="current" viewBox="0 0 24 24" fill="none" xmlns="http://www.w3.org/2000/svg">
<path d="M12.0001 2C10.6869 2 9.38654 2.25866 8.17329 2.7612C6.96003 3.26375 5.85764 4.00035 4.92905 4.92893C3.05369 6.8043 2.00012 9.34784 2.00012 12C2.00012 16.42 4.87012 20.17 8.84012 21.5C9.34012 21.58 9.50012 21.27 9.50012 21V19.31C6.73012 19.91 6.14012 17.97 6.14012 17.97C5.68012 16.81 5.03012 16.5 5.03012 16.5C4.12012 15.88 5.10012 15.9 5.10012 15.9C6.10012 15.97 6.63012 16.93 6.63012 16.93C7.50012 18.45 8.97012 18 9.54012 17.76C9.63012 17.11 9.89012 16.67 10.1701 16.42C7.95012 16.17 5.62012 15.31 5.62012 11.5C5.62012 10.39 6.00012 9.5 6.65012 8.79C6.55012 8.54 6.20012 7.5 6.75012 6.15C6.75012 6.15 7.59012 5.88 9.50012 7.17C10.2901 6.95 11.1501 6.84 12.0001 6.84C12.8501 6.84 13.7101 6.95 14.5001 7.17C16.4101 5.88 17.2501 6.15 17.2501 6.15C17.8001 7.5 17.4501 8.54 17.3501 8.79C18.0001 9.5 18.3801 10.39 18.3801 11.5C18.3801 15.32 16.0401 16.16 13.8101 16.41C14.1701 16.72 14.5001 17.33 14.5001 18.26V21C14.5001 21.27 14.6601 21.59 15.1701 21.5C19.1401 20.16 22.0001 16.42 22.0001 12C22.0001 10.6868 21.7415 9.38642 21.2389 8.17317C20.7364 6.95991 19.9998 5.85752 19.0712 4.92893C18.1426 4.00035 17.0402 3.26375 15.827 2.7612C14.6137 2.25866 13.3133 2 12.0001 2Z" fill="current"/>
</svg>
