<svg width="16" height="17" viewBox="0 0 16 17" fill="none" xmlns="http://www.w3.org/2000/svg">
<g id="Shape">
<path id="Vector" d="M12.2005 5.06518C12.2005 5.49455 11.857 5.83804 11.4276 5.83804C10.9983 5.83804 10.6548 5.49455 10.6548 5.06518C10.6548 4.63581 10.9983 4.29232 11.4276 4.29232C11.857 4.29232 12.2005 4.63581 12.2005 5.06518ZM14.4332 8.50011C14.4332 10.2462 14.426 10.468 14.3974 11.155C14.3688 11.842 14.2543 12.3072 14.0969 12.7151C13.9323 13.1373 13.7104 13.4951 13.3526 13.8529C12.9948 14.2107 12.637 14.4325 12.2148 14.5971C11.8069 14.7545 11.3346 14.8619 10.6548 14.8977C9.96779 14.9263 9.74595 14.9335 7.99986 14.9335C6.25377 14.9335 6.03193 14.9263 5.34495 14.8977C4.65796 14.869 4.19282 14.7545 3.78492 14.5971C3.36271 14.4325 3.0049 14.2107 2.6471 13.8529C2.28929 13.4951 2.06746 13.1373 1.90287 12.7151C1.74543 12.3072 1.63809 11.8349 1.60231 11.155C1.57368 10.468 1.56653 10.2462 1.56653 8.50011C1.56653 6.75402 1.57368 6.53218 1.60231 5.8452C1.63093 5.15821 1.74543 4.69306 1.90287 4.28517C2.06746 3.86296 2.28929 3.50515 2.6471 3.14734C3.0049 2.78954 3.36271 2.5677 3.78492 2.40311C4.19282 2.24568 4.66512 2.13833 5.34495 2.10255C6.03193 2.07393 6.25377 2.06677 7.99986 2.06677C9.74595 2.06677 9.96779 2.07393 10.6548 2.10255C11.3418 2.13118 11.8069 2.24568 12.2148 2.40311C12.637 2.5677 12.9948 2.78954 13.3526 3.14734C13.7104 3.50515 13.9323 3.86296 14.0969 4.28517C14.2543 4.69306 14.3616 5.16537 14.3974 5.8452C14.426 6.53218 14.4332 6.75402 14.4332 8.50011ZM13.2739 8.50011C13.2739 6.78265 13.2739 6.57512 13.2381 5.89529C13.2095 5.26555 13.1022 4.92921 13.0163 4.70022C12.9018 4.39966 12.7587 4.18498 12.5368 3.96314C12.315 3.7413 12.1003 3.59818 11.7998 3.48368C11.5708 3.39781 11.2344 3.29047 10.6047 3.26184C9.92485 3.23322 9.72448 3.22606 7.99986 3.22606C6.27524 3.22606 6.07487 3.22606 5.39504 3.26184C4.7653 3.29047 4.42897 3.39781 4.19997 3.48368C3.89942 3.59818 3.68473 3.7413 3.46289 3.96314C3.24106 4.18498 3.09793 4.39966 2.98344 4.70022C2.89756 4.92921 2.79022 5.26555 2.7616 5.89529C2.73297 6.57512 2.72582 6.77549 2.72582 8.50011C2.72582 10.2247 2.72582 10.4251 2.7616 11.1049C2.79022 11.7347 2.89756 12.071 2.98344 12.3C3.09793 12.6006 3.24106 12.8152 3.46289 13.0371C3.68473 13.2589 3.89942 13.402 4.19997 13.5165C4.42897 13.6024 4.7653 13.7098 5.39504 13.7384C6.07487 13.767 6.27524 13.7742 7.99986 13.7742C9.72448 13.7742 9.92485 13.7742 10.6047 13.7384C11.2344 13.7098 11.5708 13.6024 11.7998 13.5165C12.1003 13.402 12.315 13.2589 12.5368 13.0371C12.7587 12.8152 12.9018 12.6006 13.0163 12.3C13.1022 12.071 13.2095 11.7347 13.2381 11.1049C13.2668 10.4251 13.2739 10.2247 13.2739 8.50011ZM11.2988 8.50011C11.2988 10.3249 9.81751 11.8062 7.99271 11.8062C6.1679 11.8062 4.68659 10.3249 4.68659 8.50011C4.68659 6.6753 6.1679 5.19399 7.99271 5.19399C9.81751 5.19399 11.2988 6.6753 11.2988 8.50011ZM10.1395 8.50011C10.1395 7.3122 9.18062 6.35328 7.99271 6.35328C6.80479 6.35328 5.84588 7.3122 5.84588 8.50011C5.84588 9.68802 6.80479 10.6469 7.99271 10.6469C9.18062 10.6469 10.1395 9.68802 10.1395 8.50011Z" fill="#8E8E93"/>
</g>
</svg>
