<svg width="current" height="current" viewBox="0 0 20 21" fill="none" xmlns="http://www.w3.org/2000/svg">
<mask id="mask0_1305_9538" style="mask-type:alpha" maskUnits="userSpaceOnUse" x="-1" y="0" width="22" height="21">
<path fill-rule="evenodd" clip-rule="evenodd" d="M9.14272 6.12993C7.92151 4.43433 5.60185 4.17748 4.07013 5.54465C2.50614 6.94062 2.4099 9.44376 3.86775 10.9666L9.99965 17.1487L16.1315 10.9666C17.5894 9.44378 17.4932 6.94062 15.9292 5.54466C14.3974 4.17748 12.0778 4.43433 10.8566 6.12994L10.6082 6.47475C10.4673 6.67044 10.2408 6.78641 9.99965 6.78641C9.75848 6.78641 9.53203 6.67044 9.39108 6.47475L9.14272 6.12993ZM9.99965 4.80686C11.8059 2.80594 14.8657 2.58481 16.928 4.42558C19.1309 6.39182 19.257 9.87767 17.2094 12.0097L17.201 12.0184L10.9746 18.2958C10.4382 18.8487 9.5611 18.8487 9.02466 18.2958L2.79831 12.0184L2.78984 12.0097C0.742362 9.87767 0.868377 6.39183 3.07129 4.42558C5.13361 2.58481 8.19341 2.80594 9.99965 4.80686Z" fill="current"/>
</mask>
<g mask="url(#mask0_1305_9538)">
<rect y="0.666748" width="20" height="20" fill="current"/>
</g>
</svg>
