<svg width="current" height="current" viewBox="0 0 24 25" fill="none" xmlns="http://www.w3.org/2000/svg">
<path fill-rule="evenodd" clip-rule="evenodd" d="M14.389 3.0166H9.61109C8.52404 3.01659 7.65335 3.01659 6.94958 3.07409C6.22692 3.13313 5.60137 3.25726 5.02552 3.55067C4.10354 4.02045 3.35394 4.77005 2.88416 5.69205C2.59076 6.26789 2.46663 6.89346 2.40758 7.61612C2.35008 8.31989 2.35009 9.19056 2.3501 10.2776V15.0556C2.35009 16.1426 2.35008 17.0133 2.40758 17.7171C2.46663 18.4397 2.59076 19.0653 2.88416 19.6412C3.35394 20.5631 4.10354 21.3128 5.02552 21.7825C5.60137 22.0759 6.22692 22.2001 6.94958 22.2591C7.65333 22.3166 8.52398 22.3166 9.611 22.3166H14.389C15.476 22.3166 16.3467 22.3166 17.0505 22.2591C17.7731 22.2001 18.3987 22.0759 18.9745 21.7825C19.8965 21.3128 20.6461 20.5631 21.1159 19.6412C21.4093 19.0653 21.5334 18.4397 21.5925 17.7171C21.65 17.0133 21.65 16.1426 21.65 15.0556V10.2776C21.65 9.19057 21.65 8.31989 21.5925 7.61612C21.5334 6.89346 21.4093 6.26789 21.1159 5.69205C20.6461 4.77005 19.8965 4.02045 18.9745 3.55067C18.3987 3.25726 17.7731 3.13313 17.0505 3.07409C16.3467 3.01659 15.476 3.01659 14.389 3.0166ZM6.54992 8.51603C6.54992 9.23366 7.13043 9.81545 7.84944 9.81545C8.56551 9.81545 9.14602 9.23071 9.14602 8.51603C9.14602 7.79839 8.56551 7.2166 7.84944 7.2166C7.13043 7.2166 6.54992 7.79839 6.54992 8.51603ZM6.72967 18.0166H8.96922V10.7989H6.72967V18.0166ZM17.3498 18.0166H15.1132V14.5082C15.1132 13.6724 15.0985 12.5945 13.9493 12.5945C12.7853 12.5945 12.6085 13.507 12.6085 14.4491V18.0166H10.3748V10.7989H12.5201V11.7853H12.5495C12.8472 11.2182 13.578 10.6187 14.6653 10.6187C16.9314 10.6187 17.3498 12.1131 17.3498 14.0563V18.0166Z" fill="current"/>
</svg>
