<svg width="16" height="17" viewBox="0 0 16 17" fill="none" xmlns="http://www.w3.org/2000/svg">
<g id="Shape">
<path id="Vector" fill-rule="evenodd" clip-rule="evenodd" d="M9.5926 2.06677H6.40733C5.68262 2.06677 5.10216 2.06676 4.63299 2.1051C4.15121 2.14446 3.73417 2.22721 3.35028 2.42282C2.73561 2.736 2.23588 3.23574 1.9227 3.8504C1.72709 4.2343 1.64434 4.65134 1.60497 5.13312C1.56664 5.6023 1.56665 6.18274 1.56665 6.90745V10.0927C1.56665 10.8174 1.56664 11.3979 1.60497 11.8671C1.64434 12.3489 1.72709 12.7659 1.9227 13.1498C2.23588 13.7645 2.73561 14.2642 3.35028 14.5774C3.73417 14.773 4.15121 14.8558 4.63298 14.8951C5.10215 14.9334 5.68259 14.9334 6.40727 14.9334H9.59259C10.3173 14.9334 10.8978 14.9334 11.3669 14.8951C11.8487 14.8558 12.2657 14.773 12.6496 14.5774C13.2643 14.2642 13.764 13.7645 14.0772 13.1498C14.2728 12.7659 14.3556 12.3489 14.3949 11.8671C14.4333 11.3979 14.4333 10.8175 14.4333 10.0927V6.90747C14.4333 6.18275 14.4333 5.6023 14.3949 5.13312C14.3556 4.65134 14.2728 4.2343 14.0772 3.8504C13.764 3.23574 13.2643 2.736 12.6496 2.42282C12.2657 2.22721 11.8487 2.14446 11.3669 2.1051C10.8978 2.06676 10.3173 2.06677 9.5926 2.06677ZM4.36654 5.73306C4.36654 6.21148 4.75355 6.59934 5.23289 6.59934C5.71027 6.59934 6.09728 6.20951 6.09728 5.73306C6.09728 5.25463 5.71027 4.86677 5.23289 4.86677C4.75355 4.86677 4.36654 5.25463 4.36654 5.73306ZM4.48638 12.0668H5.97941V7.25496H4.48638V12.0668ZM11.5665 12.0668H10.0754V9.72781C10.0754 9.17063 10.0656 8.45201 9.29945 8.45201C8.52347 8.45201 8.4056 9.06037 8.4056 9.68843V12.0668H6.91649V7.25496H8.34666V7.91255H8.36631C8.56472 7.53453 9.05192 7.13486 9.77683 7.13486C11.2875 7.13486 11.5665 8.13109 11.5665 9.42658V12.0668Z" fill="#8E8E93"/>
</g>
</svg>
