<svg width="24" height="24" viewBox="0 0 24 24" fill="none" xmlns="http://www.w3.org/2000/svg">
<path fill-rule="evenodd" clip-rule="evenodd" d="M14.389 2.3501H9.61112C8.52406 2.35009 7.65337 2.35008 6.9496 2.40758C6.22694 2.46663 5.60138 2.59076 5.02553 2.88417C4.10354 3.35395 3.35394 4.10355 2.88416 5.02555C2.59076 5.60139 2.46663 6.22695 2.40758 6.94962C2.35008 7.65338 2.35009 8.52406 2.3501 9.61112V14.389C2.35009 15.4761 2.35008 16.3468 2.40758 17.0506C2.46663 17.7732 2.59076 18.3988 2.88416 18.9747C3.35394 19.8966 4.10354 20.6462 5.02553 21.116C5.60138 21.4094 6.22694 21.5336 6.9496 21.5926C7.65335 21.6501 8.524 21.6501 9.61103 21.6501H14.389C15.476 21.6501 16.3468 21.6501 17.0505 21.5926C17.7732 21.5336 18.3987 21.4094 18.9746 21.116C19.8966 20.6462 20.6462 19.8966 21.116 18.9747C21.4094 18.3988 21.5335 17.7732 21.5925 17.0506C21.65 16.3468 21.65 15.4761 21.65 14.3891V9.61115C21.65 8.52407 21.65 7.65339 21.5925 6.94962C21.5335 6.22695 21.4094 5.60139 21.116 5.02555C20.6462 4.10355 19.8966 3.35395 18.9746 2.88417C18.3987 2.59076 17.7732 2.46663 17.0505 2.40758C16.3468 2.35008 15.4761 2.35009 14.389 2.3501Z" fill="#0A66C2"/>
<path fill-rule="evenodd" clip-rule="evenodd" d="M6.54993 7.84923C6.54993 8.56687 7.13044 9.14866 7.84946 9.14866C8.56553 9.14866 9.14604 8.56391 9.14604 7.84923C9.14604 7.13159 8.56553 6.5498 7.84946 6.5498C7.13044 6.5498 6.54993 7.13159 6.54993 7.84923ZM6.72968 17.3498H8.96923V10.1321H6.72968V17.3498ZM17.3499 17.3498H15.1133V13.8414C15.1133 13.0056 15.0985 11.9277 13.9493 11.9277C12.7853 11.9277 12.6085 12.8402 12.6085 13.7823V17.3498H10.3748V10.1321H12.5201V11.1185H12.5496C12.8472 10.5514 13.578 9.95194 14.6654 9.95194C16.9314 9.95194 17.3499 11.4463 17.3499 13.3895V17.3498Z" fill="white"/>
</svg>
