<svg width="current" height="current" viewBox="0 0 36 37" fill="none" xmlns="http://www.w3.org/2000/svg">
<path d="M12.9478 8.44713C15.3877 7.24099 18.1787 6.94762 20.8161 7.62006C23.1273 8.20933 25.1869 9.50617 26.7139 11.3167L23.9998 11.3167C23.2543 11.3167 22.6498 11.9211 22.6498 12.6667C22.6498 13.4123 23.2543 14.0167 23.9998 14.0167L29.9998 14.0167C30.7454 14.0167 31.3498 13.4123 31.3498 12.6667V6.66669C31.3498 5.9211 30.7454 5.31669 29.9998 5.31669C29.2542 5.31669 28.6498 5.9211 28.6498 6.66669V9.42634C26.7748 7.26514 24.2777 5.71626 21.4832 5.00376C18.2211 4.17206 14.7691 4.53491 11.7513 6.02671C8.7335 7.51852 6.34901 10.0408 5.02894 13.1376C3.70887 16.2344 3.54033 19.7013 4.55381 22.9116C5.56729 26.1218 7.69589 28.8635 10.5548 30.641C13.4137 32.4185 16.8142 33.1144 20.1415 32.603C23.4689 32.0917 26.5034 30.4067 28.6966 27.8527C30.8898 25.2988 32.0969 22.0444 32.0996 18.678C32.1002 17.9324 31.4963 17.3275 30.7507 17.3269C30.0051 17.3263 29.4002 17.9303 29.3996 18.6758C29.3974 21.3976 28.4215 24.0288 26.6483 26.0937C24.875 28.1586 22.4216 29.5209 19.7314 29.9344C17.0412 30.3478 14.2918 29.7851 11.9804 28.348C9.66894 26.9109 7.94795 24.6942 7.12854 22.0987C6.30914 19.5032 6.4454 16.7002 7.51269 14.1964C8.57998 11.6926 10.5079 9.65327 12.9478 8.44713Z" fill="current"/>
</svg>
