<svg width="80" height="80" viewBox="0 0 80 80" fill="none" xmlns="http://www.w3.org/2000/svg">
<path d="M40.1253 2.6273C60.7172 2.6273 77.4127 19.3213 77.4127 39.9142C77.4127 60.5062 60.7172 77.2007 40.1253 77.2007C19.5324 77.2007 2.83838 60.5062 2.83838 39.9142C2.83838 19.3213 19.5324 2.6273 40.1253 2.6273Z" stroke="#DF4427" stroke-width="0.0956652"/>
<path d="M79.8206 40.0005C79.8206 18.0082 61.9906 0.179375 39.9995 0.179375C18.0075 0.179375 0.179372 18.0082 0.179372 40.0005C0.179372 61.9913 18.0075 79.8206 39.9995 79.8206C61.9906 79.8206 79.8206 61.9913 79.8206 40.0005Z" fill="#84D4F1" stroke="#F4F4F5" stroke-width="0.358744"/>
<path d="M40.958 60.9505L41.4908 49.1799V30.6639L40.958 18.8932C40.9379 18.4517 40.5743 18.104 40.1319 18.104C39.6899 18.104 39.3264 18.4517 39.3063 18.8932L38.7734 30.6639V49.1799L39.3063 60.9505C39.3264 61.392 39.6899 61.7397 40.1319 61.7397C40.5743 61.7397 40.9379 61.392 40.958 60.9505Z" fill="white"/>
<path d="M40.958 60.9505L41.4908 49.1799V30.6639L40.958 18.8932C40.9379 18.4517 40.5743 18.104 40.1319 18.104C39.6899 18.104 39.3264 18.4517 39.3063 18.8932L38.7734 30.6639V49.1799L39.3063 60.9505C39.3264 61.392 39.6899 61.7397 40.1319 61.7397C40.5743 61.7397 40.9379 61.392 40.958 60.9505Z" stroke="white" stroke-width="0.717489" stroke-miterlimit="10"/>
<path d="M61.161 39.0962L49.3903 38.5634H30.8743L19.1037 39.0962C18.6622 39.1163 18.3145 39.4799 18.3145 39.9223C18.3145 40.3643 18.6622 40.7278 19.1037 40.7479L30.8743 41.2808H49.3903L61.161 40.7479C61.6025 40.7278 61.9502 40.3643 61.9502 39.9223C61.9502 39.4799 61.6025 39.1163 61.161 39.0962Z" fill="white"/>
<path d="M61.161 39.0962L49.3903 38.5634H30.8743L19.1037 39.0962C18.6622 39.1163 18.3145 39.4799 18.3145 39.9223C18.3145 40.3643 18.6622 40.7278 19.1037 40.7479L30.8743 41.2808H49.3903L61.161 40.7479C61.6025 40.7278 61.9502 40.3643 61.9502 39.9223C61.9502 39.4799 61.6025 39.1163 61.161 39.0962Z" stroke="white" stroke-width="0.717489" stroke-miterlimit="10"/>
<path d="M51.3129 49.933L45.7619 43.6291L36.4379 34.3046L30.134 28.7541C29.8973 28.5456 29.4649 28.6279 29.1525 28.9407C28.8397 29.253 28.7579 29.6854 28.966 29.9217L34.5169 36.2261L43.841 45.5501L50.1448 51.101C50.3816 51.3091 50.814 51.2268 51.1263 50.9145C51.4392 50.6017 51.521 50.1693 51.3129 49.933Z" fill="white"/>
<path d="M51.3129 49.933L45.7619 43.6291L36.4379 34.3046L30.134 28.7541C29.8973 28.5456 29.4649 28.6279 29.1525 28.9407C28.8397 29.253 28.7579 29.6854 28.966 29.9217L34.5169 36.2261L43.841 45.5501L50.1448 51.101C50.3816 51.3091 50.814 51.2268 51.1263 50.9145C51.4392 50.6017 51.521 50.1693 51.3129 49.933Z" stroke="white" stroke-width="0.717489" stroke-miterlimit="10"/>
<path d="M30.1207 51.0877L36.4246 45.5368L45.7491 36.2128L51.2996 29.9089C51.5081 29.6721 51.4258 29.2397 51.113 28.9274C50.8007 28.6146 50.3683 28.5328 50.132 28.7408L43.8276 34.2918L34.5036 43.6158L28.9527 49.9197C28.7446 50.1564 28.8269 50.5888 29.1392 50.9012C29.452 51.214 29.8844 51.2958 30.1207 51.0877Z" fill="white"/>
<path d="M30.1207 51.0877L36.4246 45.5368L45.7491 36.2128L51.2996 29.9089C51.5081 29.6721 51.4258 29.2397 51.113 28.9274C50.8007 28.6146 50.3683 28.5328 50.132 28.7408L43.8276 34.2918L34.5036 43.6158L28.9527 49.9197C28.7446 50.1564 28.8269 50.5888 29.1392 50.9012C29.452 51.214 29.8844 51.2958 30.1207 51.0877Z" stroke="white" stroke-width="0.717489" stroke-miterlimit="10"/>
<path d="M35.0413 9.8252L34.6448 7.35419L35.2569 7.25598L35.5625 9.16024L36.73 8.97292L36.8209 9.53966L35.0413 9.8252Z" fill="white"/>
<path d="M37.211 9.53843L37.0034 7.04446L38.8453 6.89115L38.8929 7.46316L37.6688 7.56505L37.7028 7.97308L38.7057 7.8896L38.747 8.38535L37.744 8.46883L37.7812 8.915L39.0053 8.8131L39.0529 9.38512L37.211 9.53843Z" fill="white"/>
<path d="M40.1446 9.39939L40.1133 7.47105L39.4323 7.48209L39.423 6.90818L41.4087 6.87598L41.418 7.44989L40.7332 7.461L40.7644 9.38934L40.1446 9.39939Z" fill="white"/>
<path d="M44.4282 9.70578L44.5703 8.67856L43.8652 7.10147L44.5892 7.20163L44.9575 8.14109L45.5671 7.33692L46.276 7.43498L45.187 8.74456L45.0422 9.79073L44.4282 9.70578Z" fill="white"/>
<path d="M46.9736 10.2315C46.2119 10.0607 45.7948 9.40241 45.9589 8.67057C46.123 7.93873 46.7813 7.52164 47.543 7.69246C48.3047 7.86328 48.7218 8.52153 48.5577 9.25337C48.3936 9.98521 47.7353 10.4023 46.9736 10.2315ZM47.0992 9.6714C47.5137 9.76435 47.8532 9.52677 47.9453 9.11604C48.0374 8.70532 47.8319 8.34548 47.4174 8.25254C47.003 8.15959 46.6634 8.39717 46.5713 8.8079C46.4792 9.21862 46.6848 9.57846 47.0992 9.6714Z" fill="white"/>
<path d="M49.8497 11.0473C49.1944 10.8351 48.9554 10.3313 49.1546 9.71608L49.6167 8.28901L50.2064 8.47998L49.7443 9.90706C49.65 10.1983 49.7317 10.4057 50.0229 10.5C50.3214 10.5967 50.508 10.4801 50.6035 10.1853L51.0656 8.75819L51.6408 8.94444L51.1787 10.3715C50.9806 10.9831 50.4941 11.2559 49.8497 11.0473Z" fill="white"/>
<path d="M51.4255 11.5771L52.3942 9.26957L53.3292 9.66208C53.9396 9.91833 54.072 10.364 53.8795 10.8227C53.7432 11.1473 53.4945 11.3542 53.1463 11.3533L53.3273 12.3754L52.6498 12.0911L52.5442 11.1959L52.3007 11.0937L51.9971 11.817L51.4255 11.5771ZM52.5229 10.5645L52.8934 10.72C53.1227 10.8163 53.2372 10.7315 53.3008 10.5798C53.3645 10.4281 53.3434 10.2906 53.1141 10.1943L52.7436 10.0388L52.5229 10.5645Z" fill="white"/>
<path d="M55.9525 13.8595L56.5243 11.2767L57.0927 11.6235L56.6244 13.4267L58.0139 12.1856L58.5692 12.5244L56.5339 14.2142L55.9525 13.8595Z" fill="white"/>
<path d="M57.4065 14.7988L58.2647 13.625C58.6667 13.0751 59.2248 12.9665 59.7994 13.3865C60.3771 13.8088 60.446 14.3759 60.044 14.9258L59.1858 16.0996L58.6854 15.7338L59.1054 15.1592L58.3146 14.5811L57.8946 15.1556L57.4065 14.7988ZM58.6308 14.1486L59.4216 14.7267L59.5436 14.5599C59.7468 14.2819 59.7325 14.0486 59.4576 13.8476C59.1857 13.6489 58.956 13.7038 58.7528 13.9818L58.6308 14.1486Z" fill="white"/>
<path d="M59.7471 16.6084L61.3822 14.7138L61.8515 15.1188L60.5915 16.5789L61.4866 17.3514L61.1116 17.7859L59.7471 16.6084Z" fill="white"/>
<path d="M61.9512 18.7476C61.467 18.2576 61.4866 17.7003 61.9466 17.2458L63.0136 16.1914L63.4493 16.6324L62.3823 17.6867C62.1646 17.9019 62.1416 18.1236 62.3568 18.3414C62.5773 18.5646 62.7966 18.5469 63.0171 18.3291L64.0841 17.2747L64.509 17.7048L63.442 18.7591C62.9848 19.211 62.4273 19.2293 61.9512 18.7476Z" fill="white"/>
<path d="M63.1424 19.9839L65.06 18.3758L66.2476 19.792L65.8078 20.1608L65.0185 19.2196L64.7048 19.4827L65.3515 20.2539L64.9703 20.5735L64.3236 19.8024L63.9806 20.09L64.7698 21.0313L64.33 21.4001L63.1424 19.9839Z" fill="white"/>
<path d="M66.7331 23.6503L66.7781 22.9997L67.4574 23.2568L67.0919 22.6279L67.7219 22.4737L67.6886 23.1936L68.1688 22.6548L68.5133 23.2067L67.8183 23.4014L68.4797 23.6877L68.0645 24.186L67.66 23.5814L67.5927 24.3046L66.9885 24.0593L67.4289 23.5002L66.7331 23.6503Z" fill="white"/>
<path d="M68.0295 27.9512C67.8017 27.441 67.9264 26.9789 68.3654 26.7702L68.612 27.3222C68.4687 27.3862 68.4169 27.5141 68.5152 27.7343C68.6135 27.9544 68.7434 28.0012 68.8866 27.9372C69.0369 27.8701 68.9938 27.6798 68.9386 27.453C68.8529 27.1015 68.744 26.6514 69.2996 26.4033C69.7328 26.2098 70.187 26.4009 70.407 26.8936C70.6208 27.3722 70.4759 27.8267 70.0505 28.0377L69.8133 27.5066C69.9445 27.4438 70.0119 27.3131 69.9245 27.1174C69.834 26.9148 69.6828 26.8859 69.564 26.939C69.4137 27.0061 69.4568 27.1964 69.5136 27.4267C69.6009 27.7816 69.7097 28.2318 69.1541 28.4799C68.6999 28.6827 68.2605 28.4683 68.0295 27.9512Z" fill="white"/>
<path d="M68.4936 28.9644L70.8551 28.1357L71.0603 28.7207L70.1685 29.0336L70.4789 29.9183L71.3708 29.6053L71.5761 30.1902L69.2146 31.0189L69.0094 30.434L69.9373 30.1083L69.6269 29.2237L68.6989 29.5494L68.4936 28.9644Z" fill="white"/>
<path d="M69.3396 31.572L71.7512 30.9032L71.9168 31.5006L69.5052 32.1693L69.3396 31.572Z" fill="white"/>
<path d="M69.668 32.8236L71.1361 32.516C71.7691 32.3834 72.2446 32.6747 72.3858 33.3489C72.527 34.023 72.2085 34.4807 71.5756 34.6134L70.1074 34.921L69.9803 34.3142L71.4484 34.0066C71.7481 33.9438 71.8868 33.7662 71.824 33.4666C71.7612 33.167 71.5629 33.06 71.2632 33.1227L69.7951 33.4303L69.668 32.8236Z" fill="white"/>
<path d="M70.1721 35.5907L72.6555 35.281L72.8843 37.115L72.3147 37.1861L72.1627 35.9672L71.7564 36.0178L71.8809 37.0165L71.3873 37.0781L71.2627 36.0794L70.8185 36.1348L70.9705 37.3537L70.4009 37.4248L70.1721 35.5907Z" fill="white"/>
<path d="M70.3771 40.9645C70.3969 40.4597 70.7105 40.0814 71.3796 40.1077L72.9626 40.1698L72.9383 40.7892L71.3553 40.7271C71.0647 40.7157 70.9559 40.8531 70.9486 41.0405C70.9414 41.224 71.0389 41.3734 71.3295 41.3848L72.9125 41.4469L72.8882 42.0663L71.3052 42.0042C71.0146 41.9928 70.9057 42.1341 70.8985 42.3176C70.8912 42.505 70.9888 42.6505 71.2794 42.6619L72.8625 42.724L72.8382 43.3434L71.2552 43.2813C70.586 43.2551 70.3031 42.8534 70.3229 42.3487C70.3347 42.0466 70.4627 41.8103 70.6941 41.6701C70.4744 41.5121 70.3653 41.2665 70.3771 40.9645Z" fill="white"/>
<path d="M70.2396 43.3444L72.7244 43.6423L72.6505 44.2578L70.1657 43.9599L70.2396 43.3444Z" fill="white"/>
<path d="M69.9277 45.3843L71.826 45.725L71.9463 45.0545L72.5112 45.1559L72.1604 47.1107L71.5955 47.0093L71.7165 46.3351L69.8182 45.9945L69.9277 45.3843Z" fill="white"/>
<path d="M69.6242 46.848L72.0419 47.4943L71.8818 48.0931L70.9687 47.8491L70.7266 48.7548L71.6397 48.9989L71.4797 49.5978L69.0619 48.9515L69.222 48.3526L70.1721 48.6066L70.4142 47.7009L69.4641 47.4469L69.6242 46.848Z" fill="white"/>
<path d="M68.4921 52.4726L69.0532 52.1403L69.2272 52.8454L69.5374 52.1875L70.022 52.6185L69.4105 52.9999L70.1266 53.0893L69.8679 53.6861L69.3131 53.2246L69.4529 53.9316L68.807 53.8727L69.075 53.1965L68.4415 53.5517L68.3004 52.915L69.0107 52.9601L68.4921 52.4726Z" fill="white"/>
<path d="M66.1997 55.2402L68.3335 56.5478L67.8197 57.3863C67.4638 57.9671 66.9894 58.0309 66.5554 57.765C66.1215 57.4991 65.9597 57.0454 66.3156 56.4646L66.5055 56.1547L65.8758 55.7688L66.1997 55.2402ZM66.9949 56.4546L66.799 56.7743C66.661 56.9995 66.73 57.136 66.8833 57.2299C67.0334 57.3219 67.1863 57.3214 67.3243 57.0962L67.5202 56.7765L66.9949 56.4546Z" fill="white"/>
<path d="M65.0165 57.0848L67.0317 58.5686L66.6642 59.0678L65.903 58.5074L65.3472 59.2624L66.1083 59.8228L65.7407 60.322L63.7255 58.8381L64.093 58.3389L64.885 58.922L65.4408 58.1671L64.6489 57.584L65.0165 57.0848Z" fill="white"/>
<path d="M63.3391 59.2688L64.4285 60.2319C64.9388 60.683 64.9953 61.2488 64.5239 61.7821C64.05 62.3182 63.479 62.3344 62.9687 61.8832L61.8792 60.9201L62.2898 60.4557L62.8231 60.9271L63.4719 60.1932L62.9386 59.7218L63.3391 59.2688ZM63.8732 60.548L63.2244 61.2819L63.3792 61.4188C63.6373 61.6469 63.8709 61.6542 64.0964 61.399C64.3195 61.1467 64.2861 60.913 64.0281 60.6848L63.8732 60.548Z" fill="white"/>
<path d="M60.6926 61.9679C61.095 61.5803 61.572 61.5404 61.9175 61.8824L61.4821 62.3019C61.3732 62.1889 61.2353 62.1837 61.0617 62.3509C60.8881 62.5182 60.8882 62.6562 60.9971 62.7692C61.1112 62.8877 61.2756 62.7825 61.4701 62.6535C61.7715 62.4535 62.1579 62.1982 62.58 62.6363C62.9092 62.978 62.8838 63.4701 62.4953 63.8445C62.1177 64.2082 61.6411 64.2264 61.2981 63.8979L61.717 63.4944C61.8206 63.5964 61.9664 63.6154 62.1207 63.4667C62.2805 63.3127 62.2563 63.1607 62.166 63.067C62.0519 62.9485 61.8875 63.0537 61.6902 63.1854C61.3861 63.3881 60.9997 63.6434 60.5776 63.2052C60.2324 62.847 60.2848 62.3608 60.6926 61.9679Z" fill="white"/>
<path d="M59.7229 62.887L61.3187 64.8148L59.895 65.9933L59.529 65.5512L60.4752 64.7679L60.2141 64.4525L59.4389 65.0942L59.1217 64.711L59.8969 64.0693L59.6114 63.7244L58.6652 64.5077L58.2992 64.0655L59.7229 62.887Z" fill="white"/>
<path d="M55.4094 65.8837C56.0802 65.4844 56.8355 65.6761 57.2192 66.3205C57.6028 66.965 57.4112 67.7203 56.7404 68.1197C56.0696 68.519 55.3143 68.3273 54.9307 67.6829C54.547 67.0384 54.7386 66.283 55.4094 65.8837ZM55.703 66.377C55.338 66.5942 55.2546 67.0002 55.4699 67.3618C55.6852 67.7235 56.0818 67.8437 56.4468 67.6264C56.8118 67.4092 56.8952 67.0032 56.6799 66.6415C56.4646 66.2798 56.068 66.1597 55.703 66.377Z" fill="white"/>
<path d="M53.7526 66.8496L54.3976 68.2039C54.6757 68.7877 54.5046 69.3185 53.8827 69.6146C53.2608 69.9108 52.7409 69.7091 52.4629 69.1252L51.8179 67.7709L52.3776 67.5044L53.0226 68.8587C53.1542 69.1351 53.3595 69.228 53.6359 69.0964C53.9123 68.9648 53.9695 68.7468 53.8379 68.4704L53.193 67.1161L53.7526 66.8496Z" fill="white"/>
<path d="M48.8936 69.5762L49.511 69.7861L49.0886 70.377L49.7901 70.1846L49.7779 70.8331L49.0904 70.6167L49.4884 71.2187L48.8668 71.4105L48.8564 70.6889L48.4103 71.255L48.0349 70.726L48.7229 70.4898L48.0411 70.2396L48.4329 69.7183L48.8606 70.2871L48.8936 69.5762Z" fill="white"/>
<path d="M45.2165 69.6457L45.6149 72.1164L45.0028 72.215L44.6958 70.311L43.5285 70.4992L43.4371 69.9326L45.2165 69.6457Z" fill="white"/>
<path d="M43.0481 69.9341L43.2576 72.4279L41.4159 72.5827L41.3678 72.0107L42.5919 71.9079L42.5576 71.4999L41.5547 71.5841L41.513 71.0884L42.5159 71.0042L42.4784 70.558L41.2544 70.6609L41.2063 70.0889L43.0481 69.9341Z" fill="white"/>
<path d="M40.1152 70.0738L40.1464 72.0021L40.8275 71.9911L40.8368 72.565L38.8511 72.5972L38.8417 72.0233L39.5266 72.0121L39.4953 70.0838L40.1152 70.0738Z" fill="white"/>
<path d="M35.8308 69.7709L35.6895 70.7983L36.3958 72.3748L35.6717 72.2752L35.3026 71.336L34.6937 72.1407L33.9848 72.0432L35.0727 70.7327L35.2167 69.6865L35.8308 69.7709Z" fill="white"/>
<path d="M33.2949 69.2508C34.0568 69.4208 34.4746 70.0785 34.3113 70.8106C34.1481 71.5426 33.4903 71.9604 32.7284 71.7905C31.9665 71.6206 31.5486 70.9628 31.7119 70.2308C31.8752 69.4987 32.533 69.0809 33.2949 69.2508ZM33.1699 69.811C32.7553 69.7186 32.416 69.9565 32.3244 70.3674C32.2328 70.7782 32.4388 71.1378 32.8533 71.2303C33.2679 71.3227 33.6072 71.0848 33.6988 70.6739C33.7905 70.2631 33.5845 69.9035 33.1699 69.811Z" fill="white"/>
<path d="M30.4057 68.4339C31.0612 68.6456 31.3007 69.1492 31.1019 69.7646L30.6409 71.192L30.051 71.0015L30.512 69.5741C30.6061 69.2828 30.5243 69.0754 30.233 68.9813C29.9344 68.8849 29.7479 69.0016 29.6526 69.2965L29.1916 70.724L28.6163 70.5382L29.0773 69.1107C29.2749 68.499 29.7612 68.2258 30.4057 68.4339Z" fill="white"/>
<path d="M28.8313 67.9052L27.8643 70.2134L26.929 69.8216C26.3184 69.5658 26.1856 69.1202 26.3778 68.6614C26.5139 68.3367 26.7624 68.1296 27.1106 68.1303L26.9289 67.1082L27.6065 67.3921L27.7129 68.2872L27.9564 68.3892L28.2595 67.6656L28.8313 67.9052ZM27.7346 68.9186L27.364 68.7633C27.1346 68.6672 27.0202 68.7521 26.9567 68.9039C26.8931 69.0556 26.9143 69.1931 27.1437 69.2892L27.5143 69.4445L27.7346 68.9186Z" fill="white"/>
<path d="M24.3017 65.6276L23.7319 68.2108L23.1632 67.8644L23.6301 66.0608L22.2416 67.3031L21.6861 66.9646L23.72 65.2733L24.3017 65.6276Z" fill="white"/>
<path d="M22.8556 64.6951L21.9987 65.87C21.5974 66.4203 21.0393 66.5295 20.4643 66.1101C19.8861 65.6885 19.8165 65.1215 20.2179 64.5712L21.0748 63.3963L21.5756 63.7616L21.1562 64.3367L21.9477 64.9139L22.3671 64.3388L22.8556 64.6951ZM21.632 65.3467L20.8405 64.7695L20.7188 64.9364C20.5158 65.2147 20.5304 65.448 20.8056 65.6486C21.0777 65.8471 21.3073 65.792 21.5102 65.5137L21.632 65.3467Z" fill="white"/>
<path d="M20.5136 62.887L18.8807 64.7834L18.4109 64.3789L19.6693 62.9175L18.7733 62.1459L19.1478 61.711L20.5136 62.887Z" fill="white"/>
<path d="M18.2988 60.7439C18.7833 61.2334 18.7641 61.7908 18.3045 62.2457L17.2383 63.3008L16.8022 62.8602L17.8684 61.805C18.086 61.5897 18.1088 61.3679 17.8935 61.1503C17.6728 60.9273 17.4535 60.9451 17.2332 61.1631L16.167 62.2183L15.7417 61.7885L16.8079 60.7334C17.2648 60.2812 17.8224 60.2624 18.2988 60.7439Z" fill="white"/>
<path d="M17.1139 59.5158L15.1981 61.1259L14.0089 59.711L14.4484 59.3417L15.2386 60.2821L15.5521 60.0186L14.9046 59.2482L15.2854 58.9281L15.9329 59.6986L16.2757 59.4105L15.4854 58.4702L15.9248 58.1009L17.1139 59.5158Z" fill="white"/>
<path d="M13.5137 55.8444L13.4693 56.495L12.7898 56.2383L13.1558 56.867L12.5259 57.0216L12.5586 56.3017L12.0789 56.8408L11.734 56.2893L12.4288 56.094L11.7672 55.8082L12.182 55.3096L12.5869 55.9139L12.6537 55.1907L13.2581 55.4355L12.8181 55.995L13.5137 55.8444Z" fill="white"/>
<path d="M12.2136 51.5441C12.4418 52.054 12.3175 52.5163 11.8786 52.7253L11.6317 52.1735C11.7749 52.1094 11.8266 51.9814 11.7281 51.7614C11.6297 51.5413 11.4998 51.4946 11.3566 51.5587C11.2064 51.6259 11.2496 51.8162 11.305 52.043C11.391 52.3944 11.5001 52.8444 10.9448 53.0929C10.5117 53.2868 10.0574 53.096 9.83697 52.6035C9.62282 52.125 9.76735 51.6704 10.1926 51.4591L10.4302 51.99C10.2991 52.0529 10.2318 52.1837 10.3193 52.3793C10.41 52.5818 10.5612 52.6106 10.68 52.5574C10.8302 52.4902 10.7869 52.3 10.73 52.0697C10.6424 51.7148 10.5333 51.2648 11.0886 51.0162C11.5427 50.813 11.9823 51.0272 12.2136 51.5441Z" fill="white"/>
<path d="M11.7495 50.5299L9.38877 51.3604L9.18305 50.7756L10.0747 50.4619L9.76353 49.5776L8.87192 49.8912L8.6662 49.3065L11.027 48.4759L11.2327 49.0607L10.305 49.3871L10.6161 50.2715L11.5438 49.9451L11.7495 50.5299Z" fill="white"/>
<path d="M10.9042 47.936L8.49339 48.6075L8.32705 48.0103L10.7379 47.3388L10.9042 47.936Z" fill="white"/>
<path d="M10.5726 46.6738L9.10469 46.9826C8.47184 47.1157 7.99613 46.8248 7.85434 46.1507C7.71256 45.4767 8.03072 45.0187 8.66357 44.8856L10.1315 44.5768L10.2591 45.1835L8.79118 45.4922C8.49161 45.5553 8.35303 45.733 8.41605 46.0326C8.47906 46.3322 8.6775 46.439 8.97708 46.376L10.445 46.0672L10.5726 46.6738Z" fill="white"/>
<path d="M10.0652 43.9073L7.58206 44.219L7.35191 42.3851L7.92143 42.3136L8.07439 43.5324L8.48065 43.4814L8.35533 42.4829L8.84891 42.4209L8.97423 43.4195L9.41846 43.3637L9.2655 42.1449L9.83502 42.0735L10.0652 43.9073Z" fill="white"/>
<path d="M9.85588 38.5326C9.8365 39.0373 9.52327 39.4159 8.85411 39.3902L7.27106 39.3295L7.29484 38.71L8.87789 38.7708C9.1685 38.7819 9.27717 38.6444 9.28436 38.4571C9.29141 38.2735 9.19375 38.1242 8.90314 38.1131L7.32009 38.0523L7.34387 37.4329L8.92692 37.4936C9.21753 37.5048 9.32635 37.3635 9.33339 37.1799C9.34059 36.9925 9.24278 36.8471 8.95217 36.8359L7.36912 36.7752L7.3929 36.1557L8.97595 36.2165C9.64511 36.2422 9.92839 36.6437 9.90902 37.1484C9.89742 37.4505 9.76963 37.6868 9.53831 37.8273C9.75818 37.9851 9.86747 38.2305 9.85588 38.5326Z" fill="white"/>
<path d="M9.99184 36.1645L7.50669 35.8695L7.57976 35.2539L10.0649 35.5489L9.99184 36.1645Z" fill="white"/>
<path d="M10.3023 34.1133L8.40371 33.7742L8.28394 34.4447L7.71889 34.3438L8.06811 32.3887L8.63316 32.4896L8.51272 33.1639L10.4113 33.503L10.3023 34.1133Z" fill="white"/>
<path d="M10.6057 32.6478L8.18748 32.0035L8.34707 31.4045L9.26038 31.6478L9.50174 30.7419L8.58844 30.4986L8.74803 29.8996L11.1663 30.5439L11.0067 31.1429L10.0564 30.8897L9.81502 31.7956L10.7653 32.0488L10.6057 32.6478Z" fill="white"/>
<path d="M11.7286 27.0321L11.1678 27.3651L10.993 26.6601L10.6836 27.3184L10.1985 26.8879L10.8096 26.5058L10.0933 26.4173L10.3513 25.8201L10.9067 26.281L10.7661 25.5741L11.4121 25.6323L11.1448 26.3088L11.7779 25.9529L11.9198 26.5895L11.2094 26.5452L11.7286 27.0321Z" fill="white"/>
<path d="M14.0236 24.253L11.8887 22.947L12.4019 22.1081C12.7574 21.5271 13.2318 21.4629 13.6659 21.7285C14.1001 21.9941 14.2622 22.4477 13.9068 23.0287L13.7171 23.3388L14.3471 23.7242L14.0236 24.253ZM13.2274 23.0393L13.4231 22.7194C13.5609 22.4941 13.4919 22.3577 13.3384 22.2638C13.1883 22.172 13.0354 22.1726 12.8976 22.3979L12.7019 22.7178L13.2274 23.0393Z" fill="white"/>
<path d="M15.2048 22.4065L13.1883 20.9243L13.5555 20.4248L14.3171 20.9846L14.8723 20.2292L14.1108 19.6694L14.4779 19.1699L16.4944 20.6521L16.1272 21.1516L15.3348 20.5692L14.7795 21.3246L15.5719 21.907L15.2048 22.4065Z" fill="white"/>
<path d="M16.8799 20.2228L15.7897 19.2605C15.2791 18.8098 15.2221 18.244 15.6931 17.7104C16.1667 17.1739 16.7377 17.1573 17.2483 17.608L18.3385 18.5703L17.9283 19.035L17.3947 18.564L16.7464 19.2985L17.28 19.7695L16.8799 20.2228ZM16.3448 18.944L16.993 18.2095L16.8381 18.0728C16.5799 17.8449 16.3463 17.8378 16.1209 18.0931C15.8981 18.3455 15.9316 18.5793 16.1898 18.8072L16.3448 18.944Z" fill="white"/>
<path d="M19.526 17.5218C19.1239 17.9097 18.6469 17.9499 18.3012 17.6081L18.7363 17.1883C18.8452 17.3012 18.9831 17.3064 19.1566 17.139C19.3301 16.9716 19.3299 16.8336 19.2209 16.7207C19.1067 16.6023 18.9424 16.7076 18.748 16.8367C18.4467 17.037 18.0606 17.2926 17.6381 16.8548C17.3086 16.5133 17.3337 16.0212 17.722 15.6466C18.0992 15.2826 18.5758 15.264 18.9191 15.5922L18.5005 15.9961C18.3968 15.8941 18.251 15.8752 18.0968 16.024C17.9371 16.1781 17.9614 16.3301 18.0517 16.4237C18.166 16.5422 18.3303 16.4368 18.5275 16.3051C18.8315 16.1021 19.2176 15.8465 19.6401 16.2844C19.9855 16.6424 19.9335 17.1286 19.526 17.5218Z" fill="white"/>
<path d="M20.4948 16.6015L18.8976 14.6748L20.3204 13.4952L20.6868 13.9371L19.7411 14.7211L20.0025 15.0363L20.7772 14.394L21.0947 14.7769L20.3199 15.4193L20.6057 15.7639L21.5513 14.98L21.9177 15.4219L20.4948 16.6015Z" fill="white"/>
<path d="M24.7952 13.6079C24.1249 14.008 23.3693 13.8172 22.985 13.1732C22.6006 12.5291 22.7914 11.7735 23.4617 11.3735C24.132 10.9734 24.8876 11.1642 25.2719 11.8082C25.6563 12.4523 25.4655 13.2078 24.7952 13.6079ZM24.5011 13.115C24.8658 12.8973 24.9488 12.4913 24.7331 12.1299C24.5173 11.7684 24.1206 11.6487 23.7558 11.8664C23.3911 12.0841 23.3081 12.4901 23.5238 12.8515C23.7396 13.213 24.1363 13.3327 24.5011 13.115Z" fill="white"/>
<path d="M26.4604 12.6346L25.8144 11.2808C25.5359 10.6971 25.7065 10.1662 26.3282 9.86959C26.9498 9.57296 27.4699 9.77425 27.7484 10.3579L28.3944 11.7117L27.8349 11.9787L27.1889 10.6249C27.0571 10.3486 26.8517 10.2558 26.5754 10.3876C26.2991 10.5195 26.242 10.7375 26.3739 11.0138L27.0198 12.3676L26.4604 12.6346Z" fill="white"/>
<path d="M31.3174 9.905L30.6999 9.69547L31.1218 9.10432L30.4205 9.29723L30.4322 8.64874L31.1198 8.86463L30.7214 8.26288L31.3428 8.07065L31.3538 8.79226L31.7994 8.22583L32.1752 8.75447L31.4874 8.99125L32.1694 9.24091L31.778 9.76252L31.3498 9.19401L31.3174 9.905Z" fill="white"/>
</svg>
