<svg width="112" height="32" viewBox="0 0 112 32" fill="none" xmlns="http://www.w3.org/2000/svg">
<path d="M12.6644 16.552C14.77 16.552 15.4886 15.4617 15.4886 13.9754C15.4886 12.5135 14.77 11.4235 12.6644 11.4235H9.17118V16.552H12.6644ZM6 8.47524H12.6149C16.8267 8.47524 18.7095 10.8042 18.7095 13.9754C18.7095 17.1465 16.8267 19.4754 12.6149 19.4754H9.17118V24.6779H6V8.47524Z" fill="#171719"/>
<path d="M19.9961 7.08808H22.9443V14.1488C23.7616 12.8355 25.0251 12.1171 26.5861 12.1171C29.4103 12.1171 32.0858 13.9504 32.0858 18.3108V24.6779H29.1376V18.3108C29.1376 15.9822 27.899 14.8673 26.0407 14.8673C24.2323 14.8673 22.9443 16.0316 22.9443 18.3108V24.6779H19.9961V7.08808Z" fill="#171719"/>
<path d="M43.3569 18.5585C43.3569 16.4031 41.9199 14.8673 39.7645 14.8673C37.609 14.8673 36.1472 16.4031 36.1472 18.5585C36.1472 20.714 37.609 22.2501 39.7645 22.2501C41.9199 22.2501 43.3569 20.714 43.3569 18.5585ZM33.1744 18.6826C33.1744 14.793 35.8998 12.1171 39.789 12.1171C43.6292 12.1171 46.3048 14.7187 46.3048 18.6577V24.6779H43.6043V22.2747C42.8613 24.0831 41.2014 25 39.2689 25C36.2961 25 33.1744 22.8694 33.1744 18.6826Z" fill="#171719"/>
<path d="M47.4179 21.061H50.3907C50.4155 21.8783 51.134 22.4233 52.5709 22.4233C54.0823 22.4233 54.7261 21.804 54.7261 21.061C54.7261 20.1192 53.6361 19.9955 52.3232 19.822C50.4401 19.5743 47.6657 19.2522 47.6657 16.2545C47.6657 13.7525 49.573 12.1171 52.5213 12.1171C55.5189 12.1171 57.3522 13.8018 57.4265 15.9573H54.5032C54.4289 15.2139 53.7353 14.6938 52.5709 14.6938C51.2826 14.6938 50.6385 15.3131 50.6385 16.0316C50.6385 16.9729 51.7533 17.1215 53.0662 17.295C54.7016 17.518 57.6992 17.8401 57.6992 20.8875C57.6992 23.365 55.6924 25 52.5709 25C49.4493 25 47.4922 23.3401 47.4179 21.061Z" fill="#171719"/>
<path d="M68.3261 17.2456C67.8554 15.6103 66.5176 14.793 64.9071 14.793C63.2473 14.793 61.9589 15.6352 61.4882 17.2456H68.3261ZM58.3171 18.5585C58.3171 14.8424 61.0424 12.1171 64.9071 12.1171C68.7719 12.1171 71.4475 14.8424 71.4475 18.5585V19.5991H61.4139C61.8103 21.383 63.173 22.3244 64.9071 22.3244C66.2201 22.3244 67.1863 21.9525 67.8056 21.1598H70.9522C70.0354 23.4887 67.8056 25 64.9071 25C61.0424 25 58.3171 22.2746 58.3171 18.5585Z" fill="#171719"/>
<path d="M89.4774 16.5766C89.4774 13.4055 87.2974 11.1014 84.0768 11.1014C80.856 11.1014 78.676 13.4055 78.676 16.5766C78.676 19.7477 80.856 22.0766 84.0768 22.0766C87.2974 22.0766 89.4774 19.7477 89.4774 16.5766ZM75.4551 16.5766C75.4551 11.7207 79.0226 8.15319 84.0768 8.15319C89.1307 8.15319 92.6983 11.7207 92.6983 16.5766C92.6983 21.4324 89.1307 25 84.0768 25C79.0226 25 75.4551 21.4324 75.4551 16.5766Z" fill="#171719"/>
<path d="M93.9103 18.3108C93.9103 14.2231 96.338 12.1171 99.9549 12.1171C103.572 12.1171 106 14.1983 106 18.3108V24.6779H103.052V18.3108C103.052 15.9821 101.813 14.8673 99.9549 14.8673C98.0971 14.8673 96.8585 15.9821 96.8585 18.3108V24.6779H93.9103V18.3108Z" fill="#171719"/>
</svg>
