<svg width="16" height="17" viewBox="0 0 16 17" fill="none" xmlns="http://www.w3.org/2000/svg">
<path d="M13.5 6.66684C13.5006 5.73997 13.2669 4.82799 12.8206 4.01561C12.3744 3.20322 11.7301 2.51679 10.9475 2.02007C10.165 1.52335 9.26961 1.23244 8.34456 1.17438C7.4195 1.11631 6.49478 1.29297 5.65627 1.68794C4.81777 2.08291 4.09268 2.68339 3.54835 3.43359C3.00403 4.18379 2.65812 5.05939 2.54276 5.97906C2.42741 6.89873 2.54634 7.83263 2.88852 8.69403C3.2307 9.55543 3.78502 10.3164 4.5 10.9062V15.6668C4.49994 15.7521 4.52169 15.836 4.56318 15.9105C4.60467 15.985 4.66452 16.0476 4.73705 16.0925C4.80958 16.1373 4.89237 16.1629 4.97756 16.1667C5.06274 16.1705 5.14749 16.1525 5.22375 16.1143L8 14.7293L10.7769 16.1175C10.8465 16.1507 10.9228 16.1676 11 16.1668C11.1326 16.1668 11.2598 16.1142 11.3536 16.0204C11.4473 15.9266 11.5 15.7994 11.5 15.6668V10.9062C12.1256 10.391 12.6293 9.74365 12.9751 9.01068C13.3209 8.27771 13.5002 7.47728 13.5 6.66684ZM3.5 6.66684C3.5 5.77682 3.76392 4.9068 4.25839 4.16677C4.75285 3.42675 5.45566 2.84998 6.27793 2.50938C7.10019 2.16879 8.00499 2.07967 8.87791 2.25331C9.75082 2.42694 10.5526 2.85552 11.182 3.48486C11.8113 4.1142 12.2399 4.91602 12.4135 5.78893C12.5872 6.66185 12.4981 7.56665 12.1575 8.38892C11.8169 9.21118 11.2401 9.91399 10.5001 10.4085C9.76005 10.9029 8.89002 11.1668 8 11.1668C6.80693 11.1655 5.66311 10.691 4.81948 9.84736C3.97586 9.00373 3.50132 7.85991 3.5 6.66684ZM4.5 6.66684C4.5 5.97461 4.70527 5.29792 5.08986 4.72234C5.47444 4.14677 6.02107 3.69817 6.66061 3.43326C7.30015 3.16836 8.00388 3.09904 8.68282 3.23409C9.36175 3.36914 9.98539 3.70248 10.4749 4.19197C10.9644 4.68145 11.2977 5.30509 11.4328 5.98402C11.5678 6.66296 11.4985 7.36669 11.2336 8.00623C10.9687 8.64577 10.5201 9.1924 9.9445 9.57698C9.36893 9.96157 8.69224 10.1668 8 10.1668C7.07205 10.1658 6.18239 9.79678 5.52622 9.14062C4.87006 8.48446 4.50099 7.59479 4.5 6.66684Z" fill="#FFCC00"/>
</svg>
