<svg width="16" height="17" viewBox="0 0 16 17" fill="none" xmlns="http://www.w3.org/2000/svg">
<path d="M8.00012 14.6667C9.06099 14.6667 10.0784 14.2453 10.8285 13.4952C11.5787 12.745 12.0001 11.7276 12.0001 10.6667C12.0001 9.60588 11.5787 8.58847 10.8285 7.83832C10.0784 7.08818 9.06099 6.66675 8.00012 6.66675C6.93926 6.66675 5.92184 7.08818 5.17169 7.83832C4.42155 8.58847 4.00012 9.60588 4.00012 10.6667C4.00012 11.7276 4.42155 12.745 5.17169 13.4952C5.92184 14.2453 6.93926 14.6667 8.00012 14.6667ZM8.00012 15.6667C6.67404 15.6667 5.40227 15.14 4.46459 14.2023C3.52691 13.2646 3.00012 11.9928 3.00012 10.6667C3.00012 9.34067 3.52691 8.0689 4.46459 7.13121C5.40227 6.19353 6.67404 5.66675 8.00012 5.66675C9.3262 5.66675 10.598 6.19353 11.5357 7.13121C12.4733 8.0689 13.0001 9.34067 13.0001 10.6667C13.0001 11.9928 12.4733 13.2646 11.5357 14.2023C10.598 15.14 9.3262 15.6667 8.00012 15.6667Z" fill="#FFCC00"/>
<path d="M9.00031 2.66675H7.00031V5.79175C7.32788 5.7126 7.66333 5.67067 8.00031 5.66675C8.30531 5.66675 8.63831 5.70875 9.00031 5.79175V2.66675ZM10.0003 2.66675V6.09875C10.3823 6.24075 10.7903 6.41775 11.2253 6.62875L11.8353 2.66675H10.0003ZM6.00031 2.66675H4.16631L4.77631 6.62875C5.21131 6.41775 5.61831 6.24075 6.00031 6.09875V2.66675ZM3.58331 1.66675H12.4173C12.4894 1.66678 12.5606 1.68238 12.6261 1.7125C12.6915 1.74262 12.7497 1.78654 12.7967 1.84124C12.8436 1.89595 12.8781 1.96015 12.8979 2.02945C12.9177 2.09876 12.9223 2.17151 12.9113 2.24275L12.0003 8.16675C10.2223 7.16675 8.88931 6.66675 8.00031 6.66675C7.11131 6.66675 5.77831 7.16675 4.00031 8.16675L3.08931 2.24275C3.07835 2.17151 3.08293 2.09876 3.10272 2.02945C3.1225 1.96015 3.15704 1.89595 3.20396 1.84124C3.25088 1.78654 3.30907 1.74262 3.37455 1.7125C3.44002 1.68238 3.51124 1.66678 3.58331 1.66675Z" fill="#FFCC00"/>
</svg>
