<svg width="current" height="current" viewBox="0 0 16 12" fill="none" xmlns="http://www.w3.org/2000/svg">
<path fill-rule="evenodd" clip-rule="evenodd" d="M10.0004 1.60015C9.22716 1.60015 8.60036 2.22695 8.60036 3.00015C8.60036 3.77335 9.22716 4.40015 10.0004 4.40015C10.7736 4.40015 11.4004 3.77335 11.4004 3.00015C11.4004 2.22695 10.7736 1.60015 10.0004 1.60015ZM7.40036 3.00015C7.40036 1.56421 8.56442 0.400146 10.0004 0.400146C11.4363 0.400146 12.6004 1.56421 12.6004 3.00015C12.6004 4.43609 11.4363 5.60015 10.0004 5.60015C8.56442 5.60015 7.40036 4.43609 7.40036 3.00015ZM7.03328 8.41054C6.29605 8.90202 5.93363 9.51511 5.93363 10.1112C5.93363 10.2071 5.93302 10.303 5.93483 10.3989C8.5784 10.449 11.2232 10.4001 13.867 10.4001C13.9332 10.4001 13.9995 10.4001 14.0657 10.3989C14.0676 10.303 14.067 10.2071 14.067 10.1112C14.067 9.51511 13.7045 8.90202 12.9673 8.41054C12.2343 7.92184 11.187 7.60008 10.0003 7.60008C8.81356 7.60008 7.76632 7.92184 7.03328 8.41054ZM6.36764 7.41207C7.3236 6.77477 8.60969 6.40008 10.0003 6.40008C11.3909 6.40008 12.677 6.77477 13.6329 7.41207C14.5847 8.04659 15.267 8.98905 15.267 10.1112C15.267 10.2665 15.2708 10.4225 15.2582 10.5773C15.2483 10.6978 15.2246 10.8473 15.1471 10.9995C15.0416 11.2064 14.8733 11.3747 14.6663 11.4802C14.5142 11.5577 14.3647 11.5814 14.2442 11.5913C14.1359 11.6001 14.0092 11.6001 13.8848 11.6001H6.11577C5.99134 11.6001 5.86466 11.6001 5.75637 11.5913C5.63589 11.5814 5.48639 11.5577 5.33424 11.4802C5.12726 11.3747 4.95898 11.2064 4.85352 10.9995C4.77599 10.8473 4.75227 10.6978 4.74243 10.5773C4.72978 10.4225 4.73362 10.2665 4.73362 10.1112C4.73362 8.98905 5.41587 8.04659 6.36764 7.41207ZM1.97695 8.15182C2.67104 7.6891 3.58968 7.4162 4.5786 7.40086C4.25455 7.77853 3.98353 8.20889 3.79876 8.68728C3.3455 8.78113 2.9505 8.94501 2.64259 9.15028C2.14665 9.48091 1.93346 9.87178 1.93346 10.2224C1.93346 10.2813 1.93339 10.3402 1.93436 10.3991C2.46768 10.4079 3.00113 10.4 3.53448 10.4C3.53578 10.4869 3.53893 10.5834 3.54642 10.6751C3.56232 10.8697 3.60622 11.1947 3.78431 11.5443C3.79386 11.563 3.80365 11.5816 3.81369 11.6L2.09459 11.6C1.97953 11.6 1.86232 11.6001 1.76195 11.5925C1.65052 11.584 1.51195 11.5638 1.36884 11.4971C1.13425 11.3878 0.94572 11.1992 0.836404 10.9646C0.769712 10.8215 0.749454 10.683 0.741022 10.5715C0.732235 10.4554 0.73345 10.3387 0.733462 10.2224C0.733462 9.34572 1.26647 8.62548 1.97695 8.15182ZM3.60021 4.33341C3.60021 3.92841 3.92853 3.60008 4.33354 3.60008C4.73855 3.60008 5.06688 3.92841 5.06688 4.33341C5.06688 4.73842 4.73855 5.06675 4.33354 5.06675C3.92853 5.06675 3.60021 4.73842 3.60021 4.33341ZM4.33354 2.40008C3.26579 2.40008 2.40021 3.26566 2.40021 4.33341C2.40021 5.40117 3.26579 6.26675 4.33354 6.26675C5.40129 6.26675 6.26688 5.40117 6.26688 4.33341C6.26688 3.26566 5.40129 2.40008 4.33354 2.40008Z" fill="current"/>
</svg>
