<svg width="29" height="29" viewBox="0 0 29 29" fill="none" xmlns="http://www.w3.org/2000/svg">
<path fill-rule="evenodd" clip-rule="evenodd" d="M14.7999 2.78345C12.2038 2.78345 10.0695 3.70254 8.60243 5.43683C7.15561 7.14718 6.45825 9.5304 6.45825 12.2918L6.45825 13.1668C6.45825 16.0428 5.66114 17.7457 4.52583 18.8462C4.0807 19.2777 4.0345 19.8748 4.19361 20.3142C4.35543 20.761 4.79889 21.2168 5.46606 21.2168H24.1337C24.8009 21.2168 25.2444 20.761 25.4062 20.3142C25.5653 19.8748 25.5191 19.2777 25.074 18.8462C23.9387 17.7457 23.1416 16.0428 23.1416 13.1668L23.1416 12.2918C23.1416 9.5304 22.4442 7.14719 20.9974 5.43683C19.5303 3.70254 17.396 2.78345 14.7999 2.78345ZM8.55825 12.2918C8.55825 9.85942 9.17338 8.01348 10.2057 6.7931C11.2178 5.59666 12.7294 4.88345 14.7999 4.88345C16.8705 4.88345 18.382 5.59666 19.3941 6.79309C20.4264 8.01348 21.0416 9.85942 21.0416 12.2918L21.0416 13.1668C21.0416 15.69 21.5877 17.6318 22.5801 19.1168H7.01974C8.01208 17.6318 8.55825 15.69 8.55825 13.1668L8.55825 12.2918Z" fill="#8E8E93"/>
<path d="M11.4167 23.7835V25.8835H18.1834V23.7835H11.4167Z" fill="#8E8E93"/>
</svg>
