<svg width="current" height="current" viewBox="0 0 20 21" fill="none" xmlns="http://www.w3.org/2000/svg">
<path fill-rule="evenodd" clip-rule="evenodd" d="M7.60172 6.73164C7.60172 5.40718 8.67541 4.3335 9.99987 4.3335C11.3243 4.3335 12.398 5.40718 12.398 6.73164C12.398 8.05611 11.3243 9.12979 9.99987 9.12979C8.67541 9.12979 7.60172 8.05611 7.60172 6.73164ZM9.99987 2.8335C7.84698 2.8335 6.10172 4.57876 6.10172 6.73164C6.10172 8.88453 7.84698 10.6298 9.99987 10.6298C12.1528 10.6298 13.898 8.88453 13.898 6.73164C13.898 4.57876 12.1528 2.8335 9.99987 2.8335ZM9.99994 11.5843C12.4434 11.5843 14.8377 12.269 16.9244 13.5354C17.0855 13.633 17.2806 13.7511 17.4441 13.9389C17.5824 14.0977 17.6957 14.2995 17.7593 14.5002C17.8348 14.7381 17.8341 14.9801 17.8335 15.1825L17.8334 16.4421C17.8334 16.654 17.8334 16.8558 17.8195 17.0257C17.8044 17.2111 17.7691 17.4236 17.6608 17.6361C17.509 17.9341 17.2668 18.1763 16.9689 18.3281C16.7564 18.4363 16.5438 18.4717 16.3585 18.4868C16.1885 18.5007 15.9868 18.5007 15.7749 18.5006H4.22525C4.01331 18.5007 3.81161 18.5007 3.64164 18.4868C3.4563 18.4717 3.24371 18.4363 3.03123 18.3281C2.7333 18.1763 2.49109 17.9341 2.33929 17.6361C2.23102 17.4236 2.1957 17.2111 2.18056 17.0257C2.16667 16.8557 2.16669 16.654 2.16671 16.4421L2.16661 15.1823C2.16602 14.9799 2.16531 14.738 2.24077 14.5C2.3044 14.2993 2.41772 14.0976 2.55599 13.9388C2.71955 13.751 2.91462 13.6328 3.0757 13.5353C5.16234 12.269 7.55656 11.5843 9.99994 11.5843ZM3.68515 14.9232C5.50851 13.7588 7.67425 13.0839 9.99991 13.0839C12.3257 13.0839 14.4915 13.7589 16.3149 14.9233C16.3181 14.9254 16.3334 14.9383 16.3334 14.9711V16.9169C16.3334 16.963 16.296 17.0003 16.25 17.0003H3.75002C3.70399 17.0003 3.66668 16.963 3.66668 16.9169V14.971C3.66668 14.9382 3.68197 14.9252 3.68515 14.9232Z" fill="current"/>
</svg>
