<svg width="18" height="18" viewBox="0 0 18 18" fill="none" xmlns="http://www.w3.org/2000/svg">
<path fill-rule="evenodd" clip-rule="evenodd" d="M13.9921 1.65882C14.3908 1.46121 14.859 1.46122 15.2577 1.65886C15.4719 1.76504 15.6524 1.94667 15.8084 2.10377L15.8961 2.19145C16.0532 2.34752 16.2348 2.52797 16.3409 2.74216C16.5385 3.14087 16.5385 3.609 16.3409 4.00771C16.2347 4.2219 16.0531 4.40233 15.896 4.5584L8.52949 11.9249H6.07489V9.47033L13.4413 2.10371C13.5974 1.94661 13.7779 1.76499 13.9921 1.65882ZM14.6779 2.88244C14.6486 2.85315 14.6012 2.85315 14.5719 2.88244L7.42493 10.0294V10.5748H7.97033L15.1172 3.42779C15.1464 3.3985 15.1464 3.35101 15.1172 3.32173L14.6779 2.88244Z" fill="#69ACFF"/>
<path fill-rule="evenodd" clip-rule="evenodd" d="M5.59733 1.95007C5.09573 1.95006 4.67874 1.95006 4.33843 1.97786C3.98403 2.00682 3.65377 2.06926 3.34222 2.22801C2.8624 2.47248 2.4723 2.86258 2.22782 3.3424C2.06908 3.65396 2.00663 3.98421 1.97768 4.33861C1.94987 4.67892 1.94988 5.09591 1.94989 5.59751V12.4026C1.94988 12.9042 1.94987 13.3212 1.97768 13.6615C2.00663 14.0159 2.06908 14.3462 2.22782 14.6578C2.4723 15.1376 2.8624 15.5277 3.34222 15.7721C3.65377 15.9309 3.98403 15.9933 4.33843 16.0223C4.67874 16.0501 5.09572 16.0501 5.59732 16.0501H12.4025C12.9041 16.0501 13.3211 16.0501 13.6614 16.0223C14.0158 15.9933 14.3461 15.9309 14.6576 15.7721C15.1375 15.5277 15.5276 15.1376 15.772 14.6577C15.9308 14.3462 15.9932 14.0159 16.0222 13.6615C16.05 13.3212 16.05 12.9042 16.0499 12.4026L16.0499 8.25007L14.6999 8.25008L14.6999 12.375C14.7 12.9112 14.6994 13.2728 14.6767 13.5516C14.6545 13.8225 14.6148 13.9553 14.5692 14.0449C14.4541 14.2707 14.2705 14.4542 14.0448 14.5693C13.9552 14.6149 13.8224 14.6546 13.5515 14.6768C13.2727 14.6996 12.9111 14.7001 12.3749 14.7001H5.62489C5.0887 14.7001 4.72716 14.6996 4.44836 14.6768C4.17744 14.6546 4.04463 14.6149 3.9551 14.5693C3.72931 14.4542 3.54573 14.2707 3.43068 14.0449C3.38507 13.9553 3.34533 13.8225 3.32319 13.5516C3.30042 13.2728 3.29989 12.9113 3.29989 12.3751V5.62507C3.29989 5.08889 3.30042 4.72734 3.32319 4.44854C3.34533 4.17763 3.38507 4.04481 3.43068 3.95529C3.54573 3.72949 3.72931 3.54591 3.9551 3.43087C4.04463 3.38525 4.17744 3.34551 4.44836 3.32338C4.72716 3.3006 5.0887 3.30007 5.62489 3.30007H9.74989V1.95007L5.59733 1.95007Z" fill="#69ACFF"/>
</svg>
