<svg width="16" height="16" viewBox="0 0 16 16" fill="none" xmlns="http://www.w3.org/2000/svg">
<mask id="mask0_363_1141" style="mask-type:alpha" maskUnits="userSpaceOnUse" x="0" y="0" width="16" height="16">
<path fill-rule="evenodd" clip-rule="evenodd" d="M12 1.33334C10.8954 1.33334 10 2.22877 10 3.33334C10 3.45108 10.0102 3.56644 10.0297 3.67859L5.28655 6.46868C4.93878 6.1762 4.48997 6.00001 4 6.00001C2.89543 6.00001 2 6.89544 2 8.00001C2 9.10458 2.89543 10 4 10C4.55353 10 5.05454 9.77514 5.41666 9.41178L10.068 12.1478C10.0236 12.3133 10 12.4872 10 12.6667C10 13.7712 10.8954 14.6667 12 14.6667C13.1046 14.6667 14 13.7712 14 12.6667C14 11.5621 13.1046 10.6667 12 10.6667C11.51 10.6667 11.0612 10.8429 10.7135 11.1353L5.97032 8.34524C5.98983 8.2331 6 8.11774 6 8.00001C6 7.82057 5.97637 7.64665 5.93205 7.48119L10.5834 4.74512C10.9455 5.10848 11.4465 5.33334 12 5.33334C13.1046 5.33334 14 4.43791 14 3.33334C14 2.22877 13.1046 1.33334 12 1.33334ZM11.2 3.33334C11.2 2.89152 11.5582 2.53334 12 2.53334C12.4418 2.53334 12.8 2.89152 12.8 3.33334C12.8 3.77517 12.4418 4.13334 12 4.13334C11.5582 4.13334 11.2 3.77517 11.2 3.33334ZM4 7.20001C3.55817 7.20001 3.2 7.55818 3.2 8.00001C3.2 8.44184 3.55817 8.80001 4 8.80001C4.44183 8.80001 4.8 8.44184 4.8 8.00001C4.8 7.55818 4.44183 7.20001 4 7.20001ZM11.2 12.6667C11.2 12.2248 11.5582 11.8667 12 11.8667C12.4418 11.8667 12.8 12.2248 12.8 12.6667C12.8 13.1085 12.4418 13.4667 12 13.4667C11.5582 13.4667 11.2 13.1085 11.2 12.6667Z" fill="black"/>
</mask>
<g mask="url(#mask0_363_1141)">
<rect width="16" height="16" fill="#69ACFF"/>
</g>
</svg>
