<svg width="23" height="20" viewBox="0 0 23 20" fill="none" xmlns="http://www.w3.org/2000/svg">
<mask id="mask0_97_2790" style="mask-type:alpha" maskUnits="userSpaceOnUse" x="0" y="0" width="23" height="20">
<path fill-rule="evenodd" clip-rule="evenodd" d="M16.8999 1.66669C15.4087 1.66669 14.1999 2.78598 14.1999 4.16669C14.1999 4.31386 14.2136 4.45806 14.24 4.59825L7.83674 8.08585C7.36725 7.72026 6.76135 7.50002 6.0999 7.50002C4.60873 7.50002 3.3999 8.61931 3.3999 10C3.3999 11.3807 4.60873 12.5 6.0999 12.5C6.84716 12.5 7.52352 12.2189 8.01238 11.7647L14.2916 15.1848C14.2318 15.3916 14.1999 15.609 14.1999 15.8334C14.1999 17.2141 15.4087 18.3334 16.8999 18.3334C18.3911 18.3334 19.5999 17.2141 19.5999 15.8334C19.5999 14.4526 18.3911 13.3334 16.8999 13.3334C16.2384 13.3334 15.6326 13.5536 15.1631 13.9192L8.75982 10.4316C8.78617 10.2914 8.7999 10.1472 8.7999 10C8.7999 9.77572 8.768 9.55832 8.70816 9.35149L14.9874 5.93141C15.4763 6.38561 16.1526 6.66669 16.8999 6.66669C18.3911 6.66669 19.5999 5.5474 19.5999 4.16669C19.5999 2.78598 18.3911 1.66669 16.8999 1.66669ZM15.8199 4.16669C15.8199 3.6144 16.3034 3.16669 16.8999 3.16669C17.4964 3.16669 17.9799 3.6144 17.9799 4.16669C17.9799 4.71897 17.4964 5.16669 16.8999 5.16669C16.3034 5.16669 15.8199 4.71897 15.8199 4.16669ZM6.0999 9.00002C5.50343 9.00002 5.0199 9.44774 5.0199 10C5.0199 10.5523 5.50343 11 6.0999 11C6.69637 11 7.1799 10.5523 7.1799 10C7.1799 9.44774 6.69637 9.00002 6.0999 9.00002ZM15.8199 15.8334C15.8199 15.2811 16.3034 14.8334 16.8999 14.8334C17.4964 14.8334 17.9799 15.2811 17.9799 15.8334C17.9799 16.3856 17.4964 16.8334 16.8999 16.8334C16.3034 16.8334 15.8199 16.3856 15.8199 15.8334Z" fill="#171719" stroke="#171719" stroke-width="1.8" stroke-miterlimit="10"/>
</mask>
<g mask="url(#mask0_97_2790)">
<rect x="0.699951" width="21.6" height="20" fill="#69ACFF"/>
</g>
</svg>
