<svg width="20" height="21" viewBox="0 0 20 21" fill="none" xmlns="http://www.w3.org/2000/svg">
<path fill-rule="evenodd" clip-rule="evenodd" d="M3.58333 2.95825C3.05406 2.95825 2.625 3.38731 2.625 3.91659V8.41659C2.625 8.94586 3.05406 9.37492 3.58333 9.37492H8.08333C8.6126 9.37492 9.04166 8.94586 9.04166 8.41659V3.91659C9.04166 3.38731 8.6126 2.95825 8.08333 2.95825H3.58333ZM4.04167 7.95825V4.37492H7.625V7.95825H4.04167Z" fill="current"/>
<path fill-rule="evenodd" clip-rule="evenodd" d="M11.9167 2.95825C11.3874 2.95825 10.9583 3.38731 10.9583 3.91659V8.41659C10.9583 8.94586 11.3874 9.37492 11.9167 9.37492H16.4167C16.9459 9.37492 17.375 8.94586 17.375 8.41659V3.91659C17.375 3.38731 16.9459 2.95825 16.4167 2.95825H11.9167ZM12.375 7.95825V4.37492H15.9583V7.95825H12.375Z" fill="current"/>
<path fill-rule="evenodd" clip-rule="evenodd" d="M2.625 12.2499C2.625 11.7206 3.05406 11.2916 3.58333 11.2916H8.08333C8.6126 11.2916 9.04166 11.7206 9.04166 12.2499V16.7499C9.04166 17.2792 8.6126 17.7083 8.08333 17.7083H3.58333C3.05406 17.7083 2.625 17.2792 2.625 16.7499V12.2499ZM4.04167 12.7083V16.2916H7.625V12.7083H4.04167Z" fill="current"/>
<path fill-rule="evenodd" clip-rule="evenodd" d="M11.9167 11.2916C11.3874 11.2916 10.9583 11.7206 10.9583 12.2499V16.7499C10.9583 17.2792 11.3874 17.7083 11.9167 17.7083H16.4167C16.9459 17.7083 17.375 17.2792 17.375 16.7499V12.2499C17.375 11.7206 16.9459 11.2916 16.4167 11.2916H11.9167ZM12.375 16.2916V12.7083H15.9583V16.2916H12.375Z" fill="current"/>
</svg>
