<svg width="current" height="current" viewBox="0 0 18 17" fill="none" xmlns="http://www.w3.org/2000/svg">
<path d="M13.9165 13.1585C13.6999 12.4918 13.0749 12.0002 12.3332 12.0002H11.4999V9.50016C11.4999 9.27915 11.4121 9.06719 11.2558 8.91091C11.0995 8.75463 10.8876 8.66683 10.6665 8.66683H5.66652V7.00016H7.33319C7.55421 7.00016 7.76617 6.91237 7.92245 6.75609C8.07873 6.5998 8.16653 6.38784 8.16653 6.16683V4.50016H9.8332C10.2752 4.50016 10.6992 4.32457 11.0117 4.01201C11.3243 3.69945 11.4999 3.27552 11.4999 2.8335V2.49183C12.4969 2.8938 13.3818 3.53139 14.0786 4.35003C14.7754 5.16866 15.2635 6.14395 15.501 7.19242C15.7386 8.24089 15.7185 9.33131 15.4426 10.3703C15.1666 11.4094 14.643 12.366 13.9165 13.1585ZM8.16653 15.2752C4.87485 14.8668 2.33318 12.0668 2.33318 8.66683C2.33318 8.15016 2.39984 7.65016 2.50818 7.17516L6.49986 11.1668V12.0002C6.49986 12.4422 6.67545 12.8661 6.98801 13.1787C7.30058 13.4912 7.7245 13.6668 8.16653 13.6668M8.99987 0.333496C7.90551 0.333496 6.82188 0.549044 5.81083 0.967833C4.79978 1.38662 3.88111 2.00045 3.10729 2.77427C1.54448 4.33708 0.666504 6.45669 0.666504 8.66683C0.666504 10.877 1.54448 12.9966 3.10729 14.5594C3.88111 15.3332 4.79978 15.947 5.81083 16.3658C6.82188 16.7846 7.90551 17.0002 8.99987 17.0002C11.21 17.0002 13.3296 16.1222 14.8924 14.5594C16.4553 12.9966 17.3332 10.877 17.3332 8.66683C17.3332 7.57248 17.1177 6.48885 16.6989 5.4778C16.2801 4.46675 15.6663 3.54809 14.8924 2.77427C14.1186 2.00045 13.2 1.38662 12.1889 0.967833C11.1779 0.549044 10.0942 0.333496 8.99987 0.333496Z" fill="current"/>
</svg>
