<svg width="23" height="20" viewBox="0 0 23 20" fill="none" xmlns="http://www.w3.org/2000/svg">
<mask id="mask0_97_2764" style="mask-type:alpha" maskUnits="userSpaceOnUse" x="0" y="0" width="23" height="20">
<path fill-rule="evenodd" clip-rule="evenodd" d="M11.4999 3.32367C11.4756 3.36217 11.4497 3.4032 11.4221 3.4471L9.34442 6.75006C9.33861 6.7593 9.33215 6.76982 9.32501 6.78144C9.25511 6.89531 9.12041 7.11473 8.89644 7.26539C8.67248 7.41606 8.40547 7.46688 8.26692 7.49325C8.25278 7.49594 8.23998 7.49838 8.22869 7.50064L4.19404 8.30961C4.14042 8.32036 4.0903 8.33042 4.04323 8.33995C4.07525 8.37329 4.10942 8.4087 4.14598 8.44658L6.89654 11.2969C6.90423 11.3049 6.91304 11.3138 6.92277 11.3237C7.01812 11.4204 7.20187 11.6068 7.28742 11.8506C7.37297 12.0944 7.34266 12.3453 7.32693 12.4754C7.32532 12.4887 7.32387 12.5007 7.32271 12.5114L6.90686 16.3143C6.90133 16.3648 6.89617 16.4121 6.89142 16.4565C6.93555 16.4386 6.98248 16.4194 7.03269 16.3989L10.8103 14.8576C10.8209 14.8533 10.8328 14.8483 10.846 14.8427C10.9748 14.7887 11.2231 14.6845 11.4999 14.6845C11.7767 14.6845 12.025 14.7887 12.1538 14.8427C12.167 14.8483 12.1789 14.8533 12.1894 14.8576L15.9671 16.3989C16.0173 16.4194 16.0642 16.4386 16.1084 16.4565C16.1036 16.4121 16.0985 16.3648 16.0929 16.3143L15.6771 12.5114C15.6759 12.5007 15.6745 12.4887 15.6729 12.4754C15.6571 12.3452 15.6268 12.0944 15.7124 11.8506C15.7979 11.6068 15.9817 11.4204 16.077 11.3237C16.0867 11.3138 16.0956 11.3049 16.1032 11.2969L18.8538 8.44658C18.8904 8.4087 18.9245 8.37329 18.9566 8.33995C18.9095 8.33042 18.8594 8.32036 18.8057 8.30961L14.7711 7.50064C14.7598 7.49838 14.747 7.49594 14.7329 7.49325C14.5943 7.46688 14.3273 7.41606 14.1033 7.26539C13.8794 7.11473 13.7447 6.89531 13.6748 6.78145C13.6676 6.76982 13.6612 6.7593 13.6554 6.75006L11.5777 3.4471C11.55 3.4032 11.5242 3.36217 11.4999 3.32367ZM10.5113 1.98221C10.6817 1.78504 10.9977 1.49451 11.4999 1.49451C12.0021 1.49451 12.3181 1.78504 12.4884 1.98221C12.6456 2.16405 12.8018 2.41266 12.9536 2.65415C12.9616 2.66684 12.9696 2.67951 12.9775 2.69215L15.0552 5.99511C15.0624 6.00658 15.0691 6.0171 15.0752 6.02683C15.0871 6.02923 15.0999 6.03181 15.1139 6.03462L19.1486 6.84359C19.164 6.84669 19.1795 6.84978 19.195 6.85289C19.49 6.91193 19.7936 6.97271 20.0289 7.0549C20.2841 7.14401 20.6802 7.33249 20.8354 7.77471C20.9905 8.21693 20.7898 8.58497 20.6399 8.79595C20.5017 8.99052 20.2946 9.20495 20.0935 9.41324C20.0829 9.42418 20.0723 9.43511 20.0618 9.44602L17.3113 12.2963C17.3017 12.3062 17.293 12.3153 17.2849 12.3237C17.2861 12.3349 17.2874 12.347 17.2888 12.3603L17.7047 16.1632C17.7063 16.1777 17.7079 16.1923 17.7095 16.2069C17.74 16.4849 17.7714 16.7711 17.7597 17.0037C17.747 17.256 17.6758 17.663 17.2695 17.9363C16.8633 18.2096 16.4232 18.1465 16.1602 18.0797C15.9176 18.0182 15.6334 17.9021 15.3573 17.7893C15.3428 17.7834 15.3283 17.7775 15.3138 17.7716L11.5362 16.2302C11.5231 16.2249 11.511 16.2199 11.4999 16.2154C11.4887 16.2199 11.4767 16.2249 11.4636 16.2302L7.68595 17.7716C7.67149 17.7775 7.65699 17.7834 7.64248 17.7893C7.36639 17.9021 7.08216 18.0182 6.8396 18.0797C6.57659 18.1465 6.13652 18.2096 5.73025 17.9363C5.32399 17.663 5.25278 17.256 5.2401 17.0037C5.22841 16.7711 5.2598 16.4849 5.2903 16.2069C5.29191 16.1923 5.29351 16.1777 5.2951 16.1632L5.71095 12.3603C5.71239 12.347 5.71371 12.3349 5.71493 12.3237C5.70683 12.3153 5.69807 12.3062 5.68852 12.2963L2.93796 9.44602C2.92743 9.43511 2.91688 9.42418 2.90631 9.41324C2.70518 9.20495 2.4981 8.99052 2.35988 8.79595C2.21001 8.58497 2.00924 8.21693 2.16442 7.77471C2.3196 7.33249 2.71567 7.14401 2.97084 7.0549C3.20618 6.97271 3.50982 6.91193 3.80476 6.85289C3.82026 6.84978 3.83574 6.84669 3.85118 6.84359L7.88583 6.03462C7.89984 6.03181 7.91269 6.02923 7.92459 6.02683C7.93072 6.0171 7.93734 6.00658 7.94456 5.99511L10.0223 2.69215C10.0302 2.67951 10.0382 2.66684 10.0461 2.65415C10.1979 2.41267 10.3542 2.16406 10.5113 1.98221Z" fill="#171719" stroke="#171719" stroke-width="1.8" stroke-linejoin="round"/>
</mask>
<g mask="url(#mask0_97_2764)">
<rect x="0.699951" width="21.6" height="20" fill="white"/>
</g>
</svg>
