<svg width="17" height="16" viewBox="0 0 17 16" fill="none" xmlns="http://www.w3.org/2000/svg">
<mask id="mask0_363_1094" style="mask-type:alpha" maskUnits="userSpaceOnUse" x="0" y="0" width="17" height="16">
<path fill-rule="evenodd" clip-rule="evenodd" d="M8.50012 2.65892C8.4821 2.68972 8.46297 2.72254 8.44252 2.75766L6.90348 5.40003C6.89917 5.40742 6.89439 5.41584 6.8891 5.42514C6.83732 5.51623 6.73754 5.69176 6.57164 5.8123C6.40574 5.93283 6.20796 5.97348 6.10533 5.99458C6.09485 5.99673 6.08537 5.99868 6.07701 6.00049L3.08838 6.64767C3.04866 6.65627 3.01153 6.66432 2.97667 6.67195C3.00039 6.69861 3.02569 6.72694 3.05278 6.75725L5.09023 9.0375C5.09593 9.04387 5.10245 9.05103 5.10966 9.05892C5.18029 9.13631 5.31641 9.28546 5.37977 9.48049C5.44314 9.67552 5.42069 9.87618 5.40904 9.98031C5.40785 9.99094 5.40677 10.0006 5.40591 10.0091L5.09787 13.0514C5.09378 13.0918 5.08996 13.1296 5.08644 13.1652C5.11913 13.1508 5.15389 13.1355 5.19109 13.1191L7.98934 11.886C7.99717 11.8826 8.00599 11.8786 8.01573 11.8742C8.11116 11.8309 8.29506 11.7476 8.50012 11.7476C8.70519 11.7476 8.88909 11.8309 8.98452 11.8742C8.99426 11.8786 9.00308 11.8826 9.01091 11.886L11.8092 13.1191C11.8464 13.1355 11.8811 13.1508 11.9138 13.1652C11.9103 13.1296 11.9065 13.0918 11.9024 13.0514L11.5943 10.0091C11.5935 10.0006 11.5924 9.99093 11.5912 9.98031C11.5796 9.87618 11.5571 9.67552 11.6205 9.48049C11.6838 9.28546 11.82 9.13632 11.8906 9.05892C11.8978 9.05103 11.9043 9.04387 11.91 9.0375L13.9475 6.75725C13.9746 6.72694 13.9999 6.69861 14.0236 6.67195C13.9887 6.66432 13.9516 6.65627 13.9119 6.64767L10.9232 6.00049C10.9149 5.99868 10.9054 5.99673 10.8949 5.99458C10.7923 5.97348 10.5945 5.93283 10.4286 5.8123C10.2627 5.69176 10.1629 5.51623 10.1111 5.42514C10.1059 5.41584 10.1011 5.40742 10.0968 5.40003L8.55773 2.75766C8.53728 2.72254 8.51815 2.68972 8.50012 2.65892ZM7.76787 1.58575C7.89408 1.42802 8.12815 1.19559 8.50012 1.19559C8.8721 1.19559 9.10617 1.42802 9.23238 1.58575C9.34878 1.73122 9.46453 1.93011 9.57697 2.1233C9.58288 2.13345 9.58878 2.14359 9.59467 2.1537L11.1337 4.79607C11.1391 4.80525 11.144 4.81366 11.1485 4.82145C11.1573 4.82336 11.1668 4.82543 11.1772 4.82768L14.1658 5.47485C14.1773 5.47733 14.1887 5.47981 14.2002 5.48229C14.4187 5.52952 14.6436 5.57815 14.8179 5.6439C15.007 5.71519 15.3003 5.86598 15.4153 6.21975C15.5302 6.57352 15.3815 6.86796 15.2705 7.03674C15.1681 7.1924 15.0147 7.36394 14.8657 7.53057C14.8579 7.53933 14.8501 7.54807 14.8423 7.5568L12.8049 9.83705C12.7978 9.84496 12.7913 9.85223 12.7853 9.85896C12.7862 9.86793 12.7872 9.87762 12.7882 9.88818L13.0963 12.9305C13.0974 12.9422 13.0986 12.9538 13.0998 12.9655C13.1224 13.1879 13.1457 13.4168 13.137 13.603C13.1276 13.8048 13.0749 14.1304 12.7739 14.349C12.473 14.5677 12.147 14.5172 11.9522 14.4638C11.7725 14.4145 11.562 14.3216 11.3575 14.2314C11.3467 14.2267 11.336 14.222 11.3253 14.2172L8.52701 12.9841C8.51729 12.9799 8.50838 12.9759 8.50012 12.9723C8.49187 12.9759 8.48296 12.9799 8.47324 12.9841L5.67498 14.2172C5.66427 14.222 5.65353 14.2267 5.64278 14.2314C5.43827 14.3216 5.22773 14.4145 5.04806 14.4638C4.85323 14.5172 4.52725 14.5677 4.22631 14.349C3.92538 14.1304 3.87263 13.8048 3.86324 13.603C3.85458 13.4168 3.87783 13.1879 3.90043 12.9655C3.90161 12.9538 3.9028 12.9422 3.90398 12.9305L4.21201 9.88818C4.21308 9.87762 4.21406 9.86793 4.21496 9.85896C4.20896 9.85223 4.20247 9.84496 4.1954 9.83705L2.15794 7.5568C2.15015 7.54807 2.14233 7.53933 2.1345 7.53057C1.98551 7.36394 1.83213 7.1924 1.72974 7.03674C1.61873 6.86796 1.47001 6.57352 1.58495 6.21975C1.6999 5.86598 1.99329 5.71519 2.1823 5.6439C2.35663 5.57815 2.58155 5.52952 2.80002 5.48229C2.81151 5.47981 2.82297 5.47733 2.83441 5.47485L5.82304 4.82768C5.83342 4.82543 5.84294 4.82337 5.85175 4.82145C5.85629 4.81366 5.8612 4.80525 5.86654 4.79607L7.40558 2.1537C7.41147 2.14359 7.41737 2.13346 7.42328 2.1233C7.53571 1.93012 7.65147 1.73123 7.76787 1.58575Z" fill="black"/>
</mask>
<g mask="url(#mask0_363_1094)">
<rect x="0.5" width="16" height="16" fill="white"/>
</g>
</svg>
