<svg width="24" height="25" viewBox="0 0 24 25" fill="none" xmlns="http://www.w3.org/2000/svg">
<path fill-rule="evenodd" clip-rule="evenodd" d="M15.1288 4.97316C14.7457 4.65649 14.1784 4.71037 13.8617 5.09349C13.5451 5.47662 13.5989 6.04392 13.9821 6.36058L17.4983 9.26687H3.9999C3.50284 9.26687 3.0999 9.66981 3.0999 10.1669C3.0999 10.6639 3.50284 11.0669 3.9999 11.0669H19.9999C20.3795 11.0669 20.7182 10.8287 20.8467 10.4715C20.9752 10.1144 20.8658 9.71498 20.5733 9.47316L15.1288 4.97316ZM8.87096 20.3606C9.25409 20.6773 9.82139 20.6234 10.1381 20.2402C10.4547 19.8571 10.4008 19.2898 10.0177 18.9732L6.50147 16.0669H19.9999C20.4969 16.0669 20.8999 15.6639 20.8999 15.1669C20.8999 14.6698 20.4969 14.2669 19.9999 14.2669H3.9999C3.62032 14.2669 3.28154 14.505 3.15304 14.8622C3.02454 15.2194 3.13395 15.6188 3.42652 15.8606L8.87096 20.3606Z" fill="#858588"/>
</svg>
