<svg width="17" height="16" viewBox="0 0 17 16" fill="none" xmlns="http://www.w3.org/2000/svg">
<mask id="mask0_120_3908" style="mask-type:alpha" maskUnits="userSpaceOnUse" x="0" y="0" width="17" height="16">
<path fill-rule="evenodd" clip-rule="evenodd" d="M12.9375 1.47451C13.2919 1.29885 13.7081 1.29886 14.0625 1.47454C14.2529 1.56892 14.4133 1.73037 14.552 1.87002L14.63 1.94796C14.7696 2.08668 14.931 2.24708 15.0254 2.43747C15.201 2.79189 15.201 3.208 15.0253 3.56241C14.931 3.7528 14.7695 3.91319 14.6299 4.05191L8.08187 10.5999H5.90001V8.41807L12.448 1.86996C12.5867 1.73032 12.7471 1.56888 12.9375 1.47451ZM13.5472 2.56217C13.5211 2.53613 13.4789 2.53613 13.4529 2.56217L7.10004 8.915V9.39981H7.58484L13.9376 3.04692C13.9636 3.02089 13.9636 2.97868 13.9376 2.95264L13.5472 2.56217Z" fill="#171719"/>
<path fill-rule="evenodd" clip-rule="evenodd" d="M5.47551 1.7334C5.02964 1.73339 4.65898 1.73338 4.35648 1.7581C4.04146 1.78384 3.7479 1.83934 3.47096 1.98045C3.04446 2.19776 2.6977 2.54452 2.48039 2.97102C2.33928 3.24796 2.28378 3.54152 2.25804 3.85654C2.23332 4.15904 2.23333 4.5297 2.23334 4.97556V11.0246C2.23333 11.4704 2.23332 11.8411 2.25804 12.1436C2.28378 12.4586 2.33928 12.7522 2.48039 13.0291C2.6977 13.4556 3.04446 13.8024 3.47096 14.0197C3.7479 14.1608 4.04146 14.2163 4.35648 14.242C4.65898 14.2667 5.02964 14.2667 5.4755 14.2667H11.5246C11.9704 14.2667 12.3411 14.2667 12.6436 14.242C12.9586 14.2163 13.2522 14.1608 13.5291 14.0197C13.9556 13.8024 14.3024 13.4556 14.5197 13.0291C14.6608 12.7522 14.7163 12.4586 14.742 12.1436C14.7668 11.8411 14.7667 11.4704 14.7667 11.0245L14.7667 7.33339L13.5667 7.33341L13.5667 11C13.5667 11.4767 13.5663 11.798 13.546 12.0459C13.5264 12.2867 13.491 12.4047 13.4505 12.4843C13.3482 12.685 13.185 12.8482 12.9843 12.9505C12.9048 12.991 12.7867 13.0263 12.5459 13.046C12.2981 13.0663 11.9767 13.0667 11.5001 13.0667H5.50001C5.0234 13.0667 4.70202 13.0663 4.4542 13.046C4.21339 13.0263 4.09533 12.991 4.01575 12.9505C3.81504 12.8482 3.65186 12.685 3.5496 12.4843C3.50905 12.4047 3.47373 12.2867 3.45405 12.0459C3.43381 11.7981 3.43334 11.4767 3.43334 11.0001V5.00007C3.43334 4.52346 3.43381 4.20208 3.45405 3.95426C3.47373 3.71345 3.50905 3.59539 3.5496 3.51581C3.65186 3.3151 3.81504 3.15192 4.01575 3.04966C4.09533 3.00911 4.21339 2.97379 4.4542 2.95411C4.70202 2.93387 5.0234 2.9334 5.50001 2.9334H9.16668V1.7334L5.47551 1.7334Z" fill="#171719"/>
</mask>
<g mask="url(#mask0_120_3908)">
<rect x="0.499939" width="16" height="16" fill="#69ACFF"/>
</g>
</svg>
