<svg width="current" height="current" viewBox="0 0 20 21" fill="none" xmlns="http://www.w3.org/2000/svg">
<path d="M12.3699 17.3335H5.41652C4.26735 17.3335 3.33318 16.3993 3.33318 15.2502C3.33318 14.101 4.26735 13.1668 5.41652 13.1668H11.2499C12.8582 13.1668 14.1665 11.8585 14.1665 10.2502C14.1665 8.64183 12.8582 7.3335 11.2499 7.3335H7.19902C6.89307 7.93345 6.51408 8.49326 6.07069 9.00016H11.2499C11.939 9.00016 12.4999 9.561 12.4999 10.2502C12.4999 10.9393 11.939 11.5002 11.2499 11.5002H5.41652C3.34901 11.5002 1.6665 13.1827 1.6665 15.2502C1.6665 17.3177 3.34901 19.0002 5.41652 19.0002H13.4107C13.0017 18.4859 12.6525 17.9267 12.3699 17.3335ZM4.16651 2.3335C2.78817 2.3335 1.6665 3.45516 1.6665 4.8335C1.6665 7.49016 4.16651 9.00016 4.16651 9.00016C4.16651 9.00016 6.66652 7.48933 6.66652 4.8335C6.66652 3.45516 5.54485 2.3335 4.16651 2.3335ZM4.16651 6.0835C4.0023 6.08344 3.83972 6.05104 3.68803 5.98815C3.53634 5.92526 3.39853 5.83311 3.28245 5.71696C3.16638 5.60081 3.07432 5.46294 3.01153 5.31121C2.94874 5.15948 2.91645 4.99687 2.91651 4.83266C2.91656 4.66846 2.94896 4.50587 3.01185 4.35418C3.07474 4.20249 3.16689 4.06468 3.28304 3.94861C3.39919 3.83253 3.53707 3.74047 3.6888 3.67769C3.84053 3.6149 4.00314 3.58261 4.16735 3.58266C4.49898 3.58277 4.81698 3.71462 5.0514 3.9492C5.28583 4.18377 5.41746 4.50187 5.41735 4.8335C5.41724 5.16513 5.28539 5.48313 5.05082 5.71755C4.81624 5.95197 4.49814 6.08361 4.16651 6.0835Z" fill="current"/>
<path d="M15.8335 12.3335C14.4552 12.3335 13.3335 13.4552 13.3335 14.8335C13.3335 17.4902 15.8335 19.0002 15.8335 19.0002C15.8335 19.0002 18.3335 17.4893 18.3335 14.8335C18.3335 13.4552 17.2118 12.3335 15.8335 12.3335ZM15.8335 16.0835C15.6693 16.0834 15.5067 16.051 15.355 15.9882C15.2033 15.9253 15.0655 15.8331 14.9494 15.717C14.8334 15.6008 14.7413 15.4629 14.6785 15.3112C14.6157 15.1595 14.5834 14.9969 14.5835 14.8327C14.5836 14.6685 14.616 14.5059 14.6788 14.3542C14.7417 14.2025 14.8339 14.0647 14.95 13.9486C15.0662 13.8325 15.2041 13.7405 15.3558 13.6777C15.5075 13.6149 15.6701 13.5826 15.8343 13.5827C16.166 13.5828 16.484 13.7146 16.7184 13.9492C16.9528 14.1838 17.0845 14.5019 17.0843 14.8335C17.0842 15.1651 16.9524 15.4831 16.7178 15.7176C16.4832 15.952 16.1651 16.0836 15.8335 16.0835Z" fill="current"/>
</svg>
