<svg width="current" height="current" viewBox="0 0 24 24" fill="none" xmlns="http://www.w3.org/2000/svg">
<path d="M22.4602 6C21.6902 6.35 20.8602 6.58 20.0002 6.69C20.8802 6.16 21.5602 5.32 21.8802 4.31C21.0502 4.81 20.1302 5.16 19.1602 5.36C18.3702 4.5 17.2602 4 16.0002 4C13.6502 4 11.7302 5.92 11.7302 8.29C11.7302 8.63 11.7702 8.96 11.8402 9.27C8.28016 9.09 5.11016 7.38 3.00016 4.79C2.63016 5.42 2.42016 6.16 2.42016 6.94C2.42016 8.43 3.17016 9.75 4.33016 10.5C3.62016 10.5 2.96016 10.3 2.38016 10V10.03C2.38016 12.11 3.86016 13.85 5.82016 14.24C5.191 14.4129 4.5302 14.4369 3.89016 14.31C4.16177 15.1625 4.6937 15.9084 5.41118 16.4429C6.12866 16.9775 6.99561 17.2737 7.89016 17.29C6.37383 18.4905 4.49417 19.1394 2.56016 19.13C2.22016 19.13 1.88016 19.11 1.54016 19.07C3.44016 20.29 5.70016 21 8.12016 21C16.0002 21 20.3302 14.46 20.3302 8.79C20.3302 8.6 20.3302 8.42 20.3202 8.23C21.1602 7.63 21.8802 6.87 22.4602 6Z" fill="current"/>
</svg>
