<svg width="18" height="18" viewBox="0 0 18 18" fill="none" xmlns="http://www.w3.org/2000/svg">
<g id="Shape">
<path id="Vector" fill-rule="evenodd" clip-rule="evenodd" d="M2.64268 8.99996C3.85244 6.72442 6.24741 5.17498 9.00428 5.17498C11.7611 5.17498 14.1561 6.72442 15.3659 8.99996C14.1561 11.2755 11.7611 12.8249 9.00428 12.8249C6.24741 12.8249 3.85244 11.2755 2.64268 8.99996ZM16.7293 9.29381C16.8178 9.10787 16.8178 8.89205 16.7293 8.70611C15.3561 5.81997 12.4132 3.82498 9.00428 3.82498C5.59537 3.82498 2.65241 5.81997 1.27924 8.70611C1.19077 8.89205 1.19077 9.10787 1.27924 9.29381C2.65241 12.18 5.59537 14.1749 9.00428 14.1749C12.4132 14.1749 15.3561 12.18 16.7293 9.29381ZM7.42928 8.99998C7.42928 8.13013 8.13443 7.42498 9.00428 7.42498C9.87413 7.42498 10.5793 8.13013 10.5793 8.99998C10.5793 9.86983 9.87413 10.575 9.00428 10.575C8.13443 10.575 7.42928 9.86983 7.42928 8.99998ZM9.00428 6.07498C7.38884 6.07498 6.07927 7.38455 6.07927 8.99998C6.07927 10.6154 7.38884 11.925 9.00428 11.925C10.6197 11.925 11.9293 10.6154 11.9293 8.99998C11.9293 7.38455 10.6197 6.07498 9.00428 6.07498Z" fill="#858588"/>
</g>
</svg>
