<svg width="24" height="24" viewBox="0 0 24 24" fill="none" xmlns="http://www.w3.org/2000/svg">
<path d="M22.2029 6.87727C21.958 5.96137 21.2338 5.23717 20.3179 4.99222C18.6565 4.54492 12.0002 4.54492 12.0002 4.54492C12.0002 4.54492 5.34397 4.54492 3.68257 4.99222C2.76667 5.23717 2.04247 5.96137 1.79752 6.87727C1.35022 8.53867 1.35022 11.9999 1.35022 11.9999C1.35022 11.9999 1.35022 15.4612 1.79752 17.1226C2.04247 18.0385 2.76667 18.7627 3.68257 19.0076C5.34397 19.4549 12.0002 19.4549 12.0002 19.4549C12.0002 19.4549 18.6565 19.4549 20.3179 19.0076C21.2338 18.7627 21.958 18.0385 22.2029 17.1226C22.6502 15.4612 22.6502 11.9999 22.6502 11.9999C22.6502 11.9999 22.6502 8.53867 22.2029 6.87727Z" fill="#FF0000"/>
<path d="M9.87024 15.1952V8.80518L15.4082 12.0002L9.87024 15.1952Z" fill="white"/>
</svg>
