<svg width="16" height="16" viewBox="0 0 24 24" fill="none" xmlns="http://www.w3.org/2000/svg">
<path fill-rule="evenodd" clip-rule="evenodd" d="M20.3177 4.99247C21.2336 5.23742 21.9578 5.96162 22.2028 6.87752C22.6501 8.53892 22.6501 12.0002 22.6501 12.0002C22.6501 12.0002 22.6501 15.4614 22.2028 17.1228C21.9578 18.0387 21.2336 18.7629 20.3177 19.0079C18.6563 19.4552 12.0001 19.4552 12.0001 19.4552C12.0001 19.4552 5.34385 19.4552 3.68245 19.0079C2.76655 18.7629 2.04235 18.0387 1.7974 17.1228C1.3501 15.4614 1.3501 12.0002 1.3501 12.0002C1.3501 12.0002 1.3501 8.53892 1.7974 6.87752C2.04235 5.96162 2.76655 5.23742 3.68245 4.99247C5.34385 4.54517 12.0001 4.54517 12.0001 4.54517C12.0001 4.54517 18.6563 4.54517 20.3177 4.99247ZM9.87012 8.80542V15.1954L15.4081 12.0004L9.87012 8.80542Z" fill="current"/>
</svg>
