<svg width="32" height="32" viewBox="0 0 32 32" >
<g clip-path="url(#clip0_2_659)">
<path fill-rule="evenodd" clip-rule="evenodd" d="M16.6768 16.9089C19.3818 17.0784 21.9093 17.956 23.5152 19.095C23.5239 19.1012 23.5327 19.1074 23.5417 19.1138C23.6764 19.209 23.8405 19.3249 23.9928 19.518C24.1184 19.6773 24.2296 19.8924 24.2869 20.087C24.3567 20.3244 24.3561 20.5521 24.3556 20.7407C24.3556 20.7561 24.3555 20.7712 24.3555 20.786L24.3555 22.1598C24.3556 22.3859 24.3556 22.601 24.3408 22.7823C24.3246 22.98 24.2869 23.2068 24.1715 23.4335C24.0095 23.7512 23.7512 24.0096 23.4334 24.1715C23.2067 24.287 22.98 24.3247 22.7823 24.3408C22.601 24.3556 22.3858 24.3556 22.1598 24.3556H9.84023C9.61416 24.3556 9.39901 24.3556 9.21772 24.3408C9.02002 24.3247 8.79326 24.287 8.56661 24.1715C8.24883 24.0096 7.99046 23.7512 7.82854 23.4335C7.71306 23.2068 7.67538 22.98 7.65923 22.7823C7.64442 22.601 7.64444 22.3859 7.64446 22.1598C7.64446 22.151 7.64446 22.1422 7.64446 22.1334V20.8061C7.64446 20.7902 7.64442 20.7741 7.64438 20.7576C7.64387 20.564 7.64325 20.3319 7.71107 20.0976C7.76781 19.9016 7.87185 19.6966 7.99654 19.5351C8.1451 19.3427 8.31847 19.2165 8.46111 19.1127C8.47206 19.1047 8.48284 19.0969 8.49341 19.0891C10.9713 17.2767 13.9615 16.7387 16.6768 16.9089Z" fill="white"/>
<path fill-rule="evenodd" clip-rule="evenodd" d="M11.842 11.8024C11.842 9.50602 13.7036 7.64441 16 7.64441C18.2964 7.64441 20.158 9.50602 20.158 11.8024C20.158 14.0988 18.2964 15.9605 16 15.9605C13.7036 15.9605 11.842 14.0988 11.842 11.8024Z" fill="white"/>
<path fill-rule="evenodd" clip-rule="evenodd" d="M31.9999 0H-0.00012207V32H31.9999V0ZM16 7.64442C13.7036 7.64442 11.842 9.50603 11.842 11.8024C11.842 14.0989 13.7036 15.9605 16 15.9605C18.2964 15.9605 20.158 14.0989 20.158 11.8024C20.158 9.50603 18.2964 7.64442 16 7.64442ZM23.5152 19.095C21.9093 17.956 19.3818 17.0784 16.6768 16.9089C13.9615 16.7387 10.9713 17.2767 8.49342 19.0891L8.46112 19.1127C8.31847 19.2165 8.1451 19.3427 7.99655 19.5351C7.87186 19.6966 7.76782 19.9016 7.71108 20.0976C7.64326 20.3319 7.64387 20.564 7.64439 20.7576L7.64447 20.8061V22.1334L7.64447 22.1598C7.64445 22.3859 7.64443 22.6011 7.65924 22.7824C7.67539 22.9801 7.71307 23.2068 7.82855 23.4335C7.99047 23.7513 8.24884 24.0096 8.56662 24.1715C8.79327 24.287 9.02003 24.3247 9.21773 24.3408C9.39902 24.3557 9.61417 24.3556 9.84024 24.3556H22.1598C22.3858 24.3556 22.601 24.3557 22.7823 24.3408C22.98 24.3247 23.2067 24.287 23.4334 24.1715C23.7512 24.0096 24.0095 23.7513 24.1715 23.4335C24.2869 23.2068 24.3246 22.9801 24.3408 22.7824C24.3556 22.6011 24.3556 22.3859 24.3555 22.1598L24.3555 20.786L24.3556 20.7407C24.3561 20.5521 24.3567 20.3244 24.2869 20.087C24.2296 19.8925 24.1184 19.6773 23.9928 19.518C23.8405 19.3249 23.6764 19.209 23.5417 19.1138L23.5152 19.095Z" fill="#8C9196" fill-opacity="0.205"/>
</g>
<clipPath id="clip0_2_659">
<rect x="-0.00012207" width="32.0001" height="32" rx="16" />
</clipPath>
</svg>
