<svg width="24" height="24" viewBox="0 0 24 24" fill="none" xmlns="http://www.w3.org/2000/svg">
<path d="M3.12494 6C3.12494 5.51675 3.51669 5.125 3.99994 5.125H19.9999C20.4832 5.125 20.8749 5.51675 20.8749 6C20.8749 6.48325 20.4832 6.875 19.9999 6.875H3.99994C3.51669 6.875 3.12494 6.48325 3.12494 6Z" fill="#69ACFF"/>
<path d="M3.12494 18C3.12494 17.5168 3.51669 17.125 3.99994 17.125H13.9999C14.4832 17.125 14.8749 17.5168 14.8749 18C14.8749 18.4832 14.4832 18.875 13.9999 18.875H3.99994C3.51669 18.875 3.12494 18.4832 3.12494 18Z" fill="#69ACFF"/>
<path d="M3.99994 11.125C3.51669 11.125 3.12494 11.5168 3.12494 12C3.12494 12.4832 3.51669 12.875 3.99994 12.875H19.9999C20.4832 12.875 20.8749 12.4832 20.8749 12C20.8749 11.5168 20.4832 11.125 19.9999 11.125H3.99994Z" fill="#69ACFF"/>
</svg>
