<svg width="24" height="24" viewBox="0 0 24 24" fill="none" xmlns="http://www.w3.org/2000/svg">
<path fill-rule="evenodd" clip-rule="evenodd" d="M9.99951 2.10004C5.63647 2.10004 2.09952 5.63699 2.09952 10C2.09952 14.3631 5.63647 17.9 9.99951 17.9C11.8568 17.9 13.5644 17.2591 14.9132 16.1863L19.8633 21.1364C20.2147 21.4879 20.7846 21.4879 21.136 21.1364C21.4875 20.7849 21.4875 20.2151 21.136 19.8636L16.186 14.9135C17.2586 13.5648 17.8995 11.8572 17.8995 10C17.8995 5.63699 14.3626 2.10004 9.99951 2.10004ZM3.89952 10C3.89952 6.6311 6.63058 3.90004 9.99951 3.90004C13.3684 3.90004 16.0995 6.6311 16.0995 10C16.0995 13.369 13.3684 16.1 9.99951 16.1C6.63058 16.1 3.89952 13.369 3.89952 10Z" fill="#47484C"/>
</svg>
